<svg width="16" height="21" viewBox="0 0 16 21" fill="none" xmlns="http://www.w3.org/2000/svg">
<path fill-rule="evenodd" clip-rule="evenodd" d="M7.40019 0.14491C8.62299 0.559986 9.45942 1.89959 9.18767 3.18919L8.69192 6.362C8.67303 6.50087 8.71381 6.57745 8.74988 6.61833C8.79171 6.66574 8.86015 6.70204 8.95 6.70204H12.95C13.9029 6.70204 14.7427 7.08848 15.2538 7.78214C15.7666 8.47815 15.8795 9.39063 15.5597 10.2948L13.1704 17.5623C12.9645 18.3525 12.447 19.0062 11.8304 19.4573C11.207 19.9135 10.4298 20.202 9.65 20.202H5.85C5.47757 20.202 5.03327 20.1416 4.61896 20.0232C4.23818 19.9144 3.78894 19.7305 3.45859 19.4201L0.390873 17.0451L1.30913 15.859L4.44672 18.2881L4.48033 18.3217C4.54698 18.3884 4.727 18.494 5.03104 18.5809C5.31673 18.6625 5.62244 18.702 5.85 18.702H9.65C10.0702 18.702 10.543 18.5406 10.9446 18.2468C11.3457 17.9533 11.6231 17.5672 11.7224 17.1701L11.729 17.1437L14.1405 9.80876L14.1437 9.79979C14.3197 9.30705 14.2316 8.92349 14.0462 8.67194C13.8573 8.41561 13.4971 8.20204 12.95 8.20204H8.95C7.90666 8.20204 7.04116 7.31064 7.20754 6.14598L7.20893 6.13625L7.71268 2.91266L7.71786 2.88935C7.82853 2.39133 7.47487 1.7509 6.91283 1.56356L6.89966 1.55917L6.88666 1.55429C6.68368 1.47817 6.41694 1.47992 6.14381 1.57381C5.86564 1.66943 5.66493 1.83174 5.57404 1.96807L5.57247 1.97042L1.47247 8.07042L0.227539 7.23367L4.32596 1.13602C4.32626 1.13558 4.32655 1.13513 4.32685 1.13469C4.63603 0.671703 5.13486 0.334485 5.65619 0.155279C6.1792 -0.0245053 6.80703 -0.0733724 7.40019 0.14491Z" fill="black"/>
</svg>
