<svg width="7" height="16" viewBox="0 0 7 16" fill="none" xmlns="http://www.w3.org/2000/svg">
<path fill-rule="evenodd" clip-rule="evenodd" d="M1.73371 1.72806C1.63499 1.81918 1.5 2.03647 1.5 2.65195V12.452C1.5 13.0674 1.63499 13.2847 1.73371 13.3759C1.84716 13.4806 2.10748 13.602 2.75 13.602H3.75C4.39252 13.602 4.65284 13.4806 4.76629 13.3759C4.86501 13.2847 5 13.0674 5 12.452V2.65195C5 2.03647 4.86501 1.81918 4.76629 1.72806C4.65284 1.62333 4.39252 1.50195 3.75 1.50195H2.75C2.10748 1.50195 1.84716 1.62333 1.73371 1.72806ZM0.71629 0.625851C1.25284 0.130578 1.99252 0.00195312 2.75 0.00195312H3.75C4.50748 0.00195312 5.24716 0.130578 5.78371 0.625851C6.33499 1.13473 6.5 1.86744 6.5 2.65195V12.452C6.5 13.2365 6.33499 13.9692 5.78371 14.4781C5.24716 14.9733 4.50748 15.102 3.75 15.102H2.75C1.99252 15.102 1.25284 14.9733 0.71629 14.4781C0.165005 13.9692 0 13.2365 0 12.452V2.65195C0 1.86744 0.165005 1.13473 0.71629 0.625851Z" fill="black"/>
</svg>
