<svg width="24" height="24" viewBox="0 0 24 24" fill="none" xmlns="http://www.w3.org/2000/svg">
<rect width="24" height="24" fill="#2F80ED"/>
<path d="M11.29 12.0002L14.83 8.46019C15.0163 8.27283 15.1208 8.01938 15.1208 7.75519C15.1208 7.49101 15.0163 7.23756 14.83 7.05019C14.737 6.95646 14.6264 6.88207 14.5046 6.8313C14.3827 6.78053 14.252 6.75439 14.12 6.75439C13.988 6.75439 13.8573 6.78053 13.7354 6.8313C13.6136 6.88207 13.503 6.95646 13.41 7.05019L9.17 11.2902C9.07628 11.3832 9.00188 11.4938 8.95111 11.6156C8.90035 11.7375 8.87421 11.8682 8.87421 12.0002C8.87421 12.1322 8.90035 12.2629 8.95111 12.3848C9.00188 12.5066 9.07628 12.6172 9.17 12.7102L13.41 17.0002C13.5034 17.0929 13.6143 17.1662 13.7361 17.216C13.8579 17.2657 13.9884 17.291 14.12 17.2902C14.2516 17.291 14.3821 17.2657 14.5039 17.216C14.6257 17.1662 14.7366 17.0929 14.83 17.0002C15.0163 16.8128 15.1208 16.5594 15.1208 16.2952C15.1208 16.031 15.0163 15.7776 14.83 15.5902L11.29 12.0002Z" fill="white"/>
</svg>
