<svg width="31" height="31" viewBox="0 0 31 31" fill="none" xmlns="http://www.w3.org/2000/svg">
<g clip-path="url(#clip0_190_2581)">
<path d="M4.38569 4.79709C4.38569 3.66095 4.83722 2.57134 5.64095 1.76797C6.44467 0.964601 7.53476 0.513271 8.6714 0.513271C9.80805 0.513271 10.8981 0.964601 11.7019 1.76797C12.5056 2.57134 12.9571 3.66095 12.9571 4.79709C12.9571 5.93323 12.5056 7.02283 11.7019 7.82621C10.8981 8.62958 9.80805 9.08091 8.6714 9.08091C7.53476 9.08091 6.44467 8.62958 5.64095 7.82621C4.83722 7.02283 4.38569 5.93323 4.38569 4.79709ZM8.6714 2.65518C8.10308 2.65518 7.55804 2.88085 7.15618 3.28253C6.75431 3.68422 6.52855 4.22902 6.52855 4.79709C6.52855 5.36516 6.75431 5.90996 7.15618 6.31165C7.55804 6.71333 8.10308 6.939 8.6714 6.939C9.23972 6.939 9.78477 6.71333 10.1866 6.31165C10.5885 5.90996 10.8143 5.36516 10.8143 4.79709C10.8143 4.22902 10.5885 3.68422 10.1866 3.28253C9.78477 2.88085 9.23972 2.65518 8.6714 2.65518ZM18.9121 8.18987C18.4632 7.84758 18.0863 7.41999 17.8032 6.93167C17.5201 6.44335 17.3363 5.90392 17.2625 5.34439C17.1886 4.78485 17.226 4.21624 17.3727 3.67122C17.5193 3.1262 17.7723 2.61551 18.117 2.16851C18.4617 1.72151 18.8914 1.347 19.3814 1.06651C19.8713 0.786014 20.4119 0.60506 20.9721 0.534046C21.5322 0.463032 22.1009 0.503357 22.6454 0.652705C23.1899 0.802052 23.6995 1.05748 24.145 1.40431C25.022 2.10558 25.5886 3.12296 25.7229 4.23756C25.8571 5.35215 25.5482 6.47488 24.8627 7.36416C24.1772 8.25344 23.1698 8.8382 22.0574 8.99262C20.9449 9.14705 19.8141 8.85879 18.9121 8.18987ZM21.5285 2.65518C20.9602 2.65518 20.4152 2.88085 20.0133 3.28253C19.6115 3.68422 19.3857 4.22902 19.3857 4.79709C19.3857 5.36516 19.6115 5.90996 20.0133 6.31165C20.4152 6.71333 20.9602 6.939 21.5285 6.939C22.0969 6.939 22.6419 6.71333 23.0438 6.31165C23.4456 5.90996 23.6714 5.36516 23.6714 4.79709C23.6714 4.22902 23.4456 3.68422 23.0438 3.28253C22.6419 2.88085 22.0969 2.65518 21.5285 2.65518ZM3.31426 11.2228H9.03569C8.79998 11.8932 8.6714 12.6151 8.6714 13.3647H3.31426C3.0301 13.3647 2.75758 13.4776 2.55665 13.6784C2.35572 13.8792 2.24283 14.1516 2.24283 14.4357C2.24283 16.1856 2.93926 17.4836 4.03855 18.3661C4.54426 18.773 5.15069 19.1008 5.8364 19.3407C5.33285 19.8757 4.94481 20.5085 4.6964 21.1998C3.97712 20.911 3.30365 20.5192 2.69712 20.0368C1.08569 18.7409 0.0999756 16.8261 0.0999756 14.4357C0.0999756 13.5836 0.438623 12.7664 1.04142 12.1638C1.64421 11.5613 2.46178 11.2228 3.31426 11.2228ZM11.3885 11.2228C10.8202 12.2073 10.6664 13.3771 10.961 14.4749C11.2556 15.5727 11.9744 16.5086 12.9593 17.0767C13.9442 17.6447 15.1145 17.7984 16.2128 17.504C17.3111 17.2096 18.2474 16.4911 18.8157 15.5066C19.384 14.5222 19.5378 13.3524 19.2432 12.2546C18.9487 11.1567 18.2299 10.2209 17.245 9.6528C16.2601 9.08473 15.0897 8.931 13.9915 9.22544C12.8932 9.51987 11.9569 10.2384 11.3885 11.2228ZM14.62 11.2764C14.9339 11.2055 15.2598 11.206 15.5736 11.2778C15.8873 11.3497 16.1809 11.4911 16.4327 11.6915C16.6845 11.892 16.888 12.1464 17.0282 12.436C17.1684 12.7256 17.2418 13.043 17.2428 13.3647C17.2427 13.7677 17.1288 14.1625 16.9142 14.5037C16.6996 14.8449 16.3931 15.1187 16.0299 15.2936C15.6666 15.4685 15.2614 15.5374 14.8607 15.4924C14.4601 15.4474 14.0802 15.2903 13.7649 15.0392C13.4495 14.7881 13.2114 14.4532 13.0779 14.0729C12.9445 13.6926 12.921 13.2824 13.0104 12.8894C13.0997 12.4964 13.2981 12.1366 13.5828 11.8512C13.8675 11.5659 14.227 11.3666 14.62 11.2764ZM26.1614 18.3661C25.6557 18.773 25.0493 19.1008 24.3635 19.3407C24.8663 19.8759 25.2536 20.5087 25.5014 21.1998C26.23 20.9021 26.905 20.5144 27.5028 20.0368C29.1143 18.7409 30.1 16.8261 30.1 14.4357C30.1 13.5836 29.7613 12.7664 29.1585 12.1638C28.5557 11.5613 27.7382 11.2228 26.8857 11.2228H21.1643C21.4 11.8932 21.5285 12.6151 21.5285 13.3647H26.8857C27.1698 13.3647 27.4424 13.4776 27.6433 13.6784C27.8442 13.8792 27.9571 14.1516 27.9571 14.4357C27.9571 16.1856 27.2607 17.4836 26.1614 18.3661ZM20.4571 19.7905C21.3096 19.7905 22.1272 20.129 22.73 20.7315C23.3328 21.334 23.6714 22.1512 23.6714 23.0033C23.6714 25.3937 22.6878 27.3086 21.0743 28.6044C19.4864 29.8788 17.3564 30.5 15.1 30.5C12.8435 30.5 10.7135 29.8788 9.12569 28.6044C7.51426 27.3086 6.52855 25.3937 6.52855 23.0033C6.52742 22.5811 6.60978 22.1628 6.77092 21.7725C6.93205 21.3822 7.16877 21.0275 7.46747 20.729C7.76617 20.4304 8.12096 20.1938 8.51144 20.0327C8.90193 19.8717 9.32041 19.7893 9.74283 19.7905H20.4571ZM20.4571 21.9324H9.74283C9.45867 21.9324 9.18615 22.0452 8.98522 22.246C8.78429 22.4469 8.6714 22.7193 8.6714 23.0033C8.6714 24.7533 9.36783 26.0513 10.4671 26.9337C11.5943 27.8376 13.2143 28.3581 15.1 28.3581C16.9857 28.3581 18.6057 27.8376 19.7328 26.9337C20.8321 26.0513 21.5285 24.7533 21.5285 23.0033C21.5285 22.7193 21.4157 22.4469 21.2147 22.246C21.0138 22.0452 20.7413 21.9324 20.4571 21.9324Z" fill="black"/>
</g>
<defs>
<clipPath id="clip0_190_2581">
<rect width="30" height="30" fill="white" transform="translate(0.0999756 0.5)"/>
</clipPath>
</defs>
</svg>
