<svg width="31" height="31" viewBox="0 0 31 31" fill="none" xmlns="http://www.w3.org/2000/svg">
<g clip-path="url(#clip0_358_666)">
<path d="M4.77277 5.13303C4.77277 3.99689 5.2243 2.90728 6.02803 2.10391C6.83176 1.30054 7.92185 0.849209 9.05849 0.849209C10.1951 0.849209 11.2852 1.30054 12.0889 2.10391C12.8927 2.90728 13.3442 3.99689 13.3442 5.13303C13.3442 6.26917 12.8927 7.35877 12.0889 8.16214C11.2852 8.96552 10.1951 9.41685 9.05849 9.41685C7.92185 9.41685 6.83176 8.96552 6.02803 8.16214C5.2243 7.35877 4.77277 6.26917 4.77277 5.13303ZM9.05849 2.99112C8.49017 2.99112 7.94512 3.21678 7.54326 3.61847C7.1414 4.02015 6.91563 4.56496 6.91563 5.13303C6.91563 5.7011 7.1414 6.2459 7.54326 6.64759C7.94512 7.04927 8.49017 7.27494 9.05849 7.27494C9.62681 7.27494 10.1719 7.04927 10.5737 6.64759C10.9756 6.2459 11.2013 5.7011 11.2013 5.13303C11.2013 4.56496 10.9756 4.02015 10.5737 3.61847C10.1719 3.21678 9.62681 2.99112 9.05849 2.99112ZM19.2992 8.52581C18.8503 8.18352 18.4734 7.75593 18.1903 7.26761C17.9072 6.77929 17.7234 6.23986 17.6495 5.68033C17.5757 5.12079 17.6131 4.55218 17.7598 4.00716C17.9064 3.46214 18.1594 2.95145 18.5041 2.50445C18.8488 2.05745 19.2785 1.68294 19.7684 1.40245C20.2584 1.12195 20.799 0.940998 21.3592 0.869984C21.9193 0.798969 22.488 0.839295 23.0325 0.988642C23.577 1.13799 24.0866 1.39342 24.5321 1.74024C25.4091 2.44151 25.9757 3.4589 26.1099 4.5735C26.2442 5.68809 25.9353 6.81082 25.2498 7.7001C24.5643 8.58938 23.5569 9.17414 22.4445 9.32856C21.332 9.48298 20.2012 9.19473 19.2992 8.52581ZM21.9156 2.99112C21.3473 2.99112 20.8023 3.21678 20.4004 3.61847C19.9985 4.02015 19.7728 4.56496 19.7728 5.13303C19.7728 5.7011 19.9985 6.2459 20.4004 6.64759C20.8023 7.04927 21.3473 7.27494 21.9156 7.27494C22.484 7.27494 23.029 7.04927 23.4309 6.64759C23.8327 6.2459 24.0585 5.7011 24.0585 5.13303C24.0585 4.56496 23.8327 4.02015 23.4309 3.61847C23.029 3.21678 22.484 2.99112 21.9156 2.99112ZM3.70135 11.5588H9.42277C9.18706 12.2292 9.05849 12.951 9.05849 13.7007H3.70135C3.41719 13.7007 3.14466 13.8135 2.94373 14.0143C2.7428 14.2152 2.62992 14.4876 2.62992 14.7716C2.62992 16.5216 3.32635 17.8196 4.42563 18.702C4.93135 19.109 5.53777 19.4367 6.22349 19.6766C5.71994 20.2116 5.33189 20.8444 5.08349 21.5358C4.3642 21.247 3.69074 20.8552 3.0842 20.3727C1.47277 19.0769 0.487061 17.162 0.487061 14.7716C0.487061 13.9195 0.825708 13.1023 1.4285 12.4998C2.0313 11.8973 2.84886 11.5588 3.70135 11.5588ZM11.7756 11.5588C11.2073 12.5432 11.0535 13.713 11.3481 14.8108C11.6426 15.9086 12.3614 16.8445 13.3463 17.4126C14.3312 17.9807 15.5016 18.1344 16.5999 17.84C17.6982 17.5455 18.6345 16.827 19.2028 15.8426C19.7711 14.8581 19.9249 13.6883 19.6303 12.5905C19.3358 11.4927 18.617 10.5568 17.6321 9.98874C16.6472 9.42067 15.4768 9.26694 14.3785 9.56138C13.2802 9.85581 12.344 10.5743 11.7756 11.5588ZM15.0071 11.6123C15.321 11.5414 15.6469 11.5419 15.9607 11.6138C16.2744 11.6856 16.568 11.827 16.8198 12.0275C17.0715 12.2279 17.275 12.4823 17.4153 12.7719C17.5555 13.0615 17.6288 13.3789 17.6299 13.7007C17.6298 14.1037 17.5158 14.4985 17.3013 14.8397C17.0867 15.1809 16.7802 15.4546 16.4169 15.6295C16.0537 15.8044 15.6485 15.8733 15.2478 15.8283C14.8471 15.7833 14.4673 15.6262 14.1519 15.3751C13.8366 15.124 13.5985 14.7891 13.465 14.4088C13.3315 14.0285 13.3081 13.6183 13.3974 13.2253C13.4867 12.8323 13.6852 12.4725 13.9699 12.1872C14.2546 11.9018 14.6141 11.7026 15.0071 11.6123ZM26.5485 18.702C26.0428 19.109 25.4363 19.4367 24.7506 19.6766C25.2534 20.2118 25.6407 20.8446 25.8885 21.5358C26.6171 21.238 27.2921 20.8504 27.8899 20.3727C29.5013 19.0769 30.4871 17.162 30.4871 14.7716C30.4871 13.9195 30.1484 13.1023 29.5456 12.4998C28.9428 11.8973 28.1253 11.5588 27.2728 11.5588H21.5513C21.7871 12.2292 21.9156 12.951 21.9156 13.7007H27.2728C27.5569 13.7007 27.8295 13.8135 28.0304 14.0143C28.2313 14.2152 28.3442 14.4876 28.3442 14.7716C28.3442 16.5216 27.6478 17.8196 26.5485 18.702ZM20.8442 20.1264C21.6967 20.1264 22.5143 20.4649 23.117 21.0674C23.7198 21.6699 24.0585 22.4872 24.0585 23.3393C24.0585 25.7296 23.0749 27.6445 21.4613 28.9403C19.8735 30.2148 17.7435 30.8359 15.4871 30.8359C13.2306 30.8359 11.1006 30.2148 9.51277 28.9403C7.90135 27.6445 6.91563 25.7296 6.91563 23.3393C6.9145 22.917 6.99687 22.4987 7.158 22.1084C7.31913 21.7181 7.55585 21.3635 7.85455 21.0649C8.15325 20.7663 8.50804 20.5297 8.89853 20.3687C9.28901 20.2076 9.70749 20.1253 10.1299 20.1264H20.8442ZM20.8442 22.2683H10.1299C9.84576 22.2683 9.57323 22.3811 9.3723 22.582C9.17137 22.7828 9.05849 23.0552 9.05849 23.3393C9.05849 25.0892 9.75492 26.3872 10.8542 27.2697C11.9813 28.1735 13.6013 28.694 15.4871 28.694C17.3728 28.694 18.9928 28.1735 20.1199 27.2697C21.2192 26.3872 21.9156 25.0892 21.9156 23.3393C21.9156 23.0552 21.8027 22.7828 21.6018 22.582C21.4009 22.3811 21.1284 22.2683 20.8442 22.2683Z" fill="white"/>
</g>
<defs>
<clipPath id="clip0_358_666">
<rect width="30" height="30" fill="white" transform="translate(0.487061 0.835938)"/>
</clipPath>
</defs>
</svg>
