<svg width="30" height="31" viewBox="0 0 30 31" fill="none" xmlns="http://www.w3.org/2000/svg">
<g clip-path="url(#clip0_26_766)">
<path d="M4.28571 4.79709C4.28571 3.66095 4.73724 2.57134 5.54097 1.76797C6.3447 0.964601 7.43479 0.513271 8.57143 0.513271C9.70807 0.513271 10.7982 0.964601 11.6019 1.76797C12.4056 2.57134 12.8571 3.66095 12.8571 4.79709C12.8571 5.93323 12.4056 7.02283 11.6019 7.82621C10.7982 8.62958 9.70807 9.08091 8.57143 9.08091C7.43479 9.08091 6.3447 8.62958 5.54097 7.82621C4.73724 7.02283 4.28571 5.93323 4.28571 4.79709ZM8.57143 2.65518C8.00311 2.65518 7.45806 2.88085 7.0562 3.28253C6.65434 3.68422 6.42857 4.22902 6.42857 4.79709C6.42857 5.36516 6.65434 5.90996 7.0562 6.31165C7.45806 6.71333 8.00311 6.939 8.57143 6.939C9.13975 6.939 9.68479 6.71333 10.0867 6.31165C10.4885 5.90996 10.7143 5.36516 10.7143 4.79709C10.7143 4.22902 10.4885 3.68422 10.0867 3.28253C9.68479 2.88085 9.13975 2.65518 8.57143 2.65518ZM18.8121 8.18987C18.3632 7.84758 17.9863 7.41999 17.7032 6.93167C17.4201 6.44335 17.2364 5.90392 17.1625 5.34439C17.0886 4.78485 17.1261 4.21624 17.2727 3.67122C17.4194 3.1262 17.6723 2.61551 18.017 2.16851C18.3617 1.72151 18.7914 1.347 19.2814 1.06651C19.7714 0.786014 20.3119 0.60506 20.8721 0.534046C21.4322 0.463032 22.0009 0.503357 22.5454 0.652705C23.0899 0.802052 23.5996 1.05748 24.045 1.40431C24.9221 2.10558 25.4887 3.12296 25.6229 4.23756C25.7571 5.35215 25.4482 6.47488 24.7627 7.36416C24.0772 8.25344 23.0699 8.8382 21.9574 8.99262C20.8449 9.14705 19.7141 8.85879 18.8121 8.18987ZM21.4286 2.65518C20.8603 2.65518 20.3152 2.88085 19.9133 3.28253C19.5115 3.68422 19.2857 4.22902 19.2857 4.79709C19.2857 5.36516 19.5115 5.90996 19.9133 6.31165C20.3152 6.71333 20.8603 6.939 21.4286 6.939C21.9969 6.939 22.5419 6.71333 22.9438 6.31165C23.3457 5.90996 23.5714 5.36516 23.5714 4.79709C23.5714 4.22902 23.3457 3.68422 22.9438 3.28253C22.5419 2.88085 21.9969 2.65518 21.4286 2.65518ZM3.21429 11.2228H8.93571C8.7 11.8932 8.57143 12.6151 8.57143 13.3647H3.21429C2.93012 13.3647 2.6576 13.4776 2.45667 13.6784C2.25574 13.8792 2.14286 14.1516 2.14286 14.4357C2.14286 16.1856 2.83929 17.4836 3.93857 18.3661C4.44429 18.773 5.05071 19.1008 5.73643 19.3407C5.23287 19.8757 4.84483 20.5085 4.59643 21.1998C3.87714 20.911 3.20367 20.5192 2.59714 20.0368C0.985714 18.7409 0 16.8261 0 14.4357C0 13.5836 0.338647 12.7664 0.941443 12.1638C1.54424 11.5613 2.3618 11.2228 3.21429 11.2228ZM11.2886 11.2228C10.7203 12.2073 10.5665 13.3771 10.861 14.4749C11.1556 15.5727 11.8744 16.5086 12.8593 17.0767C13.8442 17.6447 15.0145 17.7985 16.1128 17.504C17.2111 17.2096 18.1474 16.4911 18.7157 15.5066C19.284 14.5222 19.4378 13.3524 19.1433 12.2546C18.8487 11.1567 18.1299 10.2209 17.145 9.6528C16.1601 9.08473 14.9898 8.931 13.8915 9.22544C12.7932 9.51987 11.8569 10.2384 11.2886 11.2228ZM14.52 11.2764C14.834 11.2055 15.1599 11.206 15.4736 11.2778C15.7874 11.3497 16.0809 11.4911 16.3327 11.6915C16.5845 11.892 16.788 12.1464 16.9282 12.436C17.0684 12.7256 17.1418 13.043 17.1429 13.3647C17.1427 13.7677 17.0288 14.1625 16.8142 14.5037C16.5996 14.8449 16.2931 15.1187 15.9299 15.2936C15.5666 15.4685 15.1614 15.5374 14.7607 15.4924C14.3601 15.4474 13.9802 15.2903 13.6649 15.0392C13.3495 14.7881 13.1114 14.4532 12.978 14.0729C12.8445 13.6926 12.8211 13.2824 12.9104 12.8894C12.9997 12.4964 13.1981 12.1366 13.4828 11.8512C13.7676 11.5659 14.1271 11.3666 14.52 11.2764ZM26.0614 18.3661C25.5557 18.773 24.9493 19.1008 24.2636 19.3407C24.7664 19.8759 25.1537 20.5087 25.4014 21.1998C26.13 20.9021 26.805 20.5144 27.4029 20.0368C29.0143 18.7409 30 16.8261 30 14.4357C30 13.5836 29.6614 12.7664 29.0586 12.1638C28.4558 11.5613 27.6382 11.2228 26.7857 11.2228H21.0643C21.3 11.8932 21.4286 12.6151 21.4286 13.3647H26.7857C27.0699 13.3647 27.3424 13.4776 27.5433 13.6784C27.7443 13.8792 27.8571 14.1516 27.8571 14.4357C27.8571 16.1856 27.1607 17.4836 26.0614 18.3661ZM20.3571 19.7905C21.2096 19.7905 22.0272 20.129 22.63 20.7315C23.2328 21.334 23.5714 22.1512 23.5714 23.0033C23.5714 25.3937 22.5879 27.3086 20.9743 28.6044C19.3864 29.8788 17.2564 30.5 15 30.5C12.7436 30.5 10.6136 29.8788 9.02571 28.6044C7.41429 27.3086 6.42857 25.3937 6.42857 23.0033C6.42744 22.5811 6.50981 22.1628 6.67094 21.7725C6.83207 21.3822 7.06879 21.0275 7.36749 20.729C7.66619 20.4304 8.02098 20.1938 8.41147 20.0327C8.80195 19.8717 9.22043 19.7893 9.64286 19.7905H20.3571ZM20.3571 21.9324H9.64286C9.3587 21.9324 9.08617 22.0452 8.88524 22.246C8.68431 22.4469 8.57143 22.7193 8.57143 23.0033C8.57143 24.7533 9.26786 26.0513 10.3671 26.9337C11.4943 27.8376 13.1143 28.3581 15 28.3581C16.8857 28.3581 18.5057 27.8376 19.6329 26.9337C20.7321 26.0513 21.4286 24.7533 21.4286 23.0033C21.4286 22.7193 21.3157 22.4469 21.1148 22.246C20.9138 22.0452 20.6413 21.9324 20.3571 21.9324Z" fill="white"/>
</g>
<defs>
<clipPath id="clip0_26_766">
<rect width="30" height="30" fill="white" transform="translate(0 0.5)"/>
</clipPath>
</defs>
</svg>
