<svg width="31" height="31" viewBox="0 0 31 31" fill="none" xmlns="http://www.w3.org/2000/svg">
<g clip-path="url(#clip0_503_4947)">
<path d="M4.38532 4.79709C4.38532 3.66095 4.83685 2.57134 5.64058 1.76797C6.44431 0.964601 7.5344 0.513271 8.67104 0.513271C9.80768 0.513271 10.8978 0.964601 11.7015 1.76797C12.5052 2.57134 12.9568 3.66095 12.9568 4.79709C12.9568 5.93323 12.5052 7.02283 11.7015 7.82621C10.8978 8.62958 9.80768 9.08091 8.67104 9.08091C7.5344 9.08091 6.44431 8.62958 5.64058 7.82621C4.83685 7.02283 4.38532 5.93323 4.38532 4.79709ZM8.67104 2.65518C8.10272 2.65518 7.55767 2.88085 7.15581 3.28253C6.75395 3.68422 6.52818 4.22902 6.52818 4.79709C6.52818 5.36516 6.75395 5.90996 7.15581 6.31165C7.55767 6.71333 8.10272 6.939 8.67104 6.939C9.23936 6.939 9.7844 6.71333 10.1863 6.31165C10.5881 5.90996 10.8139 5.36516 10.8139 4.79709C10.8139 4.22902 10.5881 3.68422 10.1863 3.28253C9.7844 2.88085 9.23936 2.65518 8.67104 2.65518ZM18.9118 8.18987C18.4628 7.84758 18.086 7.41999 17.8029 6.93167C17.5198 6.44335 17.336 5.90392 17.2621 5.34439C17.1882 4.78485 17.2257 4.21624 17.3723 3.67122C17.519 3.1262 17.7719 2.61551 18.1166 2.16851C18.4613 1.72151 18.891 1.347 19.381 1.06651C19.871 0.786014 20.4116 0.60506 20.9717 0.534046C21.5319 0.463032 22.1005 0.503357 22.645 0.652705C23.1895 0.802052 23.6992 1.05748 24.1446 1.40431C25.0217 2.10558 25.5883 3.12296 25.7225 4.23756C25.8567 5.35215 25.5478 6.47488 24.8623 7.36416C24.1768 8.25344 23.1695 8.8382 22.057 8.99262C20.9445 9.14705 19.8137 8.85879 18.9118 8.18987ZM21.5282 2.65518C20.9599 2.65518 20.4148 2.88085 20.013 3.28253C19.6111 3.68422 19.3853 4.22902 19.3853 4.79709C19.3853 5.36516 19.6111 5.90996 20.013 6.31165C20.4148 6.71333 20.9599 6.939 21.5282 6.939C22.0965 6.939 22.6415 6.71333 23.0434 6.31165C23.4453 5.90996 23.671 5.36516 23.671 4.79709C23.671 4.22902 23.4453 3.68422 23.0434 3.28253C22.6415 2.88085 22.0965 2.65518 21.5282 2.65518ZM3.31389 11.2228H9.03532C8.79961 11.8932 8.67104 12.6151 8.67104 13.3647H3.31389C3.02973 13.3647 2.75721 13.4776 2.55628 13.6784C2.35535 13.8792 2.24247 14.1516 2.24247 14.4357C2.24247 16.1856 2.9389 17.4836 4.03818 18.3661C4.5439 18.773 5.15032 19.1008 5.83604 19.3407C5.33248 19.8757 4.94444 20.5085 4.69604 21.1998C3.97675 20.911 3.30328 20.5192 2.69675 20.0368C1.08532 18.7409 0.0996094 16.8261 0.0996094 14.4357C0.0996094 13.5836 0.438256 12.7664 1.04105 12.1638C1.64385 11.5613 2.46141 11.2228 3.31389 11.2228ZM11.3882 11.2228C10.8199 12.2073 10.6661 13.3771 10.9606 14.4749C11.2552 15.5727 11.974 16.5086 12.9589 17.0767C13.9438 17.6447 15.1141 17.7984 16.2124 17.504C17.3107 17.2096 18.247 16.4911 18.8153 15.5066C19.3836 14.5222 19.5374 13.3524 19.2429 12.2546C18.9483 11.1567 18.2295 10.2209 17.2446 9.6528C16.2597 9.08473 15.0894 8.931 13.9911 9.22544C12.8928 9.51987 11.9565 10.2384 11.3882 11.2228ZM14.6196 11.2764C14.9336 11.2055 15.2595 11.206 15.5732 11.2778C15.887 11.3497 16.1806 11.4911 16.4323 11.6915C16.6841 11.892 16.8876 12.1464 17.0278 12.436C17.168 12.7256 17.2414 13.043 17.2425 13.3647C17.2423 13.7677 17.1284 14.1625 16.9138 14.5037C16.6993 14.8449 16.3927 15.1187 16.0295 15.2936C15.6663 15.4685 15.261 15.5374 14.8603 15.4924C14.4597 15.4474 14.0798 15.2903 13.7645 15.0392C13.4491 14.7881 13.211 14.4532 13.0776 14.0729C12.9441 13.6926 12.9207 13.2824 13.01 12.8894C13.0993 12.4964 13.2977 12.1366 13.5824 11.8512C13.8672 11.5659 14.2267 11.3666 14.6196 11.2764ZM26.161 18.3661C25.6553 18.773 25.0489 19.1008 24.3632 19.3407C24.866 19.8759 25.2533 20.5087 25.501 21.1998C26.2296 20.9021 26.9046 20.5144 27.5025 20.0368C29.1139 18.7409 30.0996 16.8261 30.0996 14.4357C30.0996 13.5836 29.761 12.7664 29.1582 12.1638C28.5554 11.5613 27.7378 11.2228 26.8853 11.2228H21.1639C21.3996 11.8932 21.5282 12.6151 21.5282 13.3647H26.8853C27.1695 13.3647 27.442 13.4776 27.6429 13.6784C27.8439 13.8792 27.9568 14.1516 27.9568 14.4357C27.9568 16.1856 27.2603 17.4836 26.161 18.3661ZM20.4568 19.7905C21.3092 19.7905 22.1268 20.129 22.7296 20.7315C23.3324 21.334 23.671 22.1512 23.671 23.0033C23.671 25.3937 22.6875 27.3086 21.0739 28.6044C19.486 29.8788 17.356 30.5 15.0996 30.5C12.8432 30.5 10.7132 29.8788 9.12532 28.6044C7.51389 27.3086 6.52818 25.3937 6.52818 23.0033C6.52705 22.5811 6.60942 22.1628 6.77055 21.7725C6.93168 21.3822 7.1684 21.0275 7.4671 20.729C7.7658 20.4304 8.12059 20.1938 8.51108 20.0327C8.90156 19.8717 9.32004 19.7893 9.74247 19.7905H20.4568ZM20.4568 21.9324H9.74247C9.45831 21.9324 9.18578 22.0452 8.98485 22.246C8.78392 22.4469 8.67104 22.7193 8.67104 23.0033C8.67104 24.7533 9.36747 26.0513 10.4668 26.9337C11.5939 27.8376 13.2139 28.3581 15.0996 28.3581C16.9853 28.3581 18.6053 27.8376 19.7325 26.9337C20.8318 26.0513 21.5282 24.7533 21.5282 23.0033C21.5282 22.7193 21.4153 22.4469 21.2144 22.246C21.0134 22.0452 20.7409 21.9324 20.4568 21.9324Z" fill="black"/>
</g>
<defs>
<clipPath id="clip0_503_4947">
<rect width="30" height="30" fill="white" transform="translate(0.0996094 0.5)"/>
</clipPath>
</defs>
</svg>
