<svg width="31" height="31" viewBox="0 0 31 31" fill="none" xmlns="http://www.w3.org/2000/svg">
<g clip-path="url(#clip0_498_388)">
<path d="M4.77277 4.79709C4.77277 3.66095 5.2243 2.57134 6.02803 1.76797C6.83176 0.964601 7.92185 0.513271 9.05849 0.513271C10.1951 0.513271 11.2852 0.964601 12.0889 1.76797C12.8927 2.57134 13.3442 3.66095 13.3442 4.79709C13.3442 5.93323 12.8927 7.02283 12.0889 7.82621C11.2852 8.62958 10.1951 9.08091 9.05849 9.08091C7.92185 9.08091 6.83176 8.62958 6.02803 7.82621C5.2243 7.02283 4.77277 5.93323 4.77277 4.79709ZM9.05849 2.65518C8.49017 2.65518 7.94512 2.88085 7.54326 3.28253C7.1414 3.68422 6.91563 4.22902 6.91563 4.79709C6.91563 5.36516 7.1414 5.90996 7.54326 6.31165C7.94512 6.71333 8.49017 6.939 9.05849 6.939C9.62681 6.939 10.1719 6.71333 10.5737 6.31165C10.9756 5.90996 11.2013 5.36516 11.2013 4.79709C11.2013 4.22902 10.9756 3.68422 10.5737 3.28253C10.1719 2.88085 9.62681 2.65518 9.05849 2.65518ZM19.2992 8.18987C18.8503 7.84758 18.4734 7.41999 18.1903 6.93167C17.9072 6.44335 17.7234 5.90392 17.6495 5.34439C17.5757 4.78485 17.6131 4.21624 17.7598 3.67122C17.9064 3.1262 18.1594 2.61551 18.5041 2.16851C18.8488 1.72151 19.2785 1.347 19.7684 1.06651C20.2584 0.786014 20.799 0.60506 21.3592 0.534046C21.9193 0.463032 22.488 0.503357 23.0325 0.652705C23.577 0.802052 24.0866 1.05748 24.5321 1.40431C25.4091 2.10558 25.9757 3.12296 26.1099 4.23756C26.2442 5.35215 25.9353 6.47488 25.2498 7.36416C24.5643 8.25344 23.5569 8.8382 22.4445 8.99262C21.332 9.14705 20.2012 8.85879 19.2992 8.18987ZM21.9156 2.65518C21.3473 2.65518 20.8023 2.88085 20.4004 3.28253C19.9985 3.68422 19.7728 4.22902 19.7728 4.79709C19.7728 5.36516 19.9985 5.90996 20.4004 6.31165C20.8023 6.71333 21.3473 6.939 21.9156 6.939C22.484 6.939 23.029 6.71333 23.4309 6.31165C23.8327 5.90996 24.0585 5.36516 24.0585 4.79709C24.0585 4.22902 23.8327 3.68422 23.4309 3.28253C23.029 2.88085 22.484 2.65518 21.9156 2.65518ZM3.70135 11.2228H9.42277C9.18706 11.8932 9.05849 12.6151 9.05849 13.3647H3.70135C3.41719 13.3647 3.14466 13.4776 2.94373 13.6784C2.7428 13.8792 2.62992 14.1516 2.62992 14.4357C2.62992 16.1856 3.32635 17.4836 4.42563 18.3661C4.93135 18.773 5.53777 19.1008 6.22349 19.3407C5.71994 19.8757 5.33189 20.5085 5.08349 21.1998C4.3642 20.911 3.69074 20.5192 3.0842 20.0368C1.47277 18.7409 0.487061 16.8261 0.487061 14.4357C0.487061 13.5836 0.825708 12.7664 1.4285 12.1638C2.0313 11.5613 2.84886 11.2228 3.70135 11.2228ZM11.7756 11.2228C11.2073 12.2073 11.0535 13.3771 11.3481 14.4749C11.6426 15.5727 12.3614 16.5086 13.3463 17.0767C14.3312 17.6447 15.5016 17.7985 16.5999 17.504C17.6982 17.2096 18.6345 16.4911 19.2028 15.5066C19.7711 14.5222 19.9249 13.3524 19.6303 12.2546C19.3358 11.1567 18.617 10.2209 17.6321 9.6528C16.6472 9.08473 15.4768 8.931 14.3785 9.22544C13.2802 9.51987 12.344 10.2384 11.7756 11.2228ZM15.0071 11.2764C15.321 11.2055 15.6469 11.206 15.9607 11.2778C16.2744 11.3497 16.568 11.4911 16.8198 11.6915C17.0715 11.892 17.275 12.1464 17.4153 12.436C17.5555 12.7256 17.6288 13.043 17.6299 13.3647C17.6298 13.7677 17.5158 14.1625 17.3013 14.5037C17.0867 14.8449 16.7802 15.1187 16.4169 15.2936C16.0537 15.4685 15.6485 15.5374 15.2478 15.4924C14.8471 15.4474 14.4673 15.2903 14.1519 15.0392C13.8366 14.7881 13.5985 14.4532 13.465 14.0729C13.3315 13.6926 13.3081 13.2824 13.3974 12.8894C13.4867 12.4964 13.6852 12.1366 13.9699 11.8512C14.2546 11.5659 14.6141 11.3666 15.0071 11.2764ZM26.5485 18.3661C26.0428 18.773 25.4363 19.1008 24.7506 19.3407C25.2534 19.8759 25.6407 20.5087 25.8885 21.1998C26.6171 20.9021 27.2921 20.5144 27.8899 20.0368C29.5013 18.7409 30.4871 16.8261 30.4871 14.4357C30.4871 13.5836 30.1484 12.7664 29.5456 12.1638C28.9428 11.5613 28.1253 11.2228 27.2728 11.2228H21.5513C21.7871 11.8932 21.9156 12.6151 21.9156 13.3647H27.2728C27.5569 13.3647 27.8295 13.4776 28.0304 13.6784C28.2313 13.8792 28.3442 14.1516 28.3442 14.4357C28.3442 16.1856 27.6478 17.4836 26.5485 18.3661ZM20.8442 19.7905C21.6967 19.7905 22.5143 20.129 23.117 20.7315C23.7198 21.334 24.0585 22.1512 24.0585 23.0033C24.0585 25.3937 23.0749 27.3086 21.4613 28.6044C19.8735 29.8788 17.7435 30.5 15.4871 30.5C13.2306 30.5 11.1006 29.8788 9.51277 28.6044C7.90135 27.3086 6.91563 25.3937 6.91563 23.0033C6.9145 22.5811 6.99687 22.1628 7.158 21.7725C7.31913 21.3822 7.55585 21.0275 7.85455 20.729C8.15325 20.4304 8.50804 20.1938 8.89853 20.0327C9.28901 19.8717 9.70749 19.7893 10.1299 19.7905H20.8442ZM20.8442 21.9324H10.1299C9.84576 21.9324 9.57323 22.0452 9.3723 22.246C9.17137 22.4469 9.05849 22.7193 9.05849 23.0033C9.05849 24.7533 9.75492 26.0513 10.8542 26.9337C11.9813 27.8376 13.6013 28.3581 15.4871 28.3581C17.3728 28.3581 18.9928 27.8376 20.1199 26.9337C21.2192 26.0513 21.9156 24.7533 21.9156 23.0033C21.9156 22.7193 21.8027 22.4469 21.6018 22.246C21.4009 22.0452 21.1284 21.9324 20.8442 21.9324Z" fill="white"/>
</g>
<defs>
<clipPath id="clip0_498_388">
<rect width="30" height="30" fill="white" transform="translate(0.487061 0.5)"/>
</clipPath>
</defs>
</svg>
