<svg width="35" height="36" viewBox="0 0 35 36" fill="none" xmlns="http://www.w3.org/2000/svg">
<path d="M8.12167 22.5002L13.1494 27.3674C13.3955 27.6146 13.5374 27.9512 13.5447 28.3049C13.5519 28.6586 13.4239 29.001 13.1881 29.2586C12.9524 29.5162 12.6277 29.6683 12.284 29.6822C11.9404 29.6961 11.6051 29.5707 11.3504 29.333L3.91292 22.133C3.78262 22.0068 3.67879 21.8545 3.60782 21.6855C3.53685 21.5165 3.50024 21.3343 3.50024 21.1502C3.50024 20.9661 3.53685 20.7839 3.60782 20.6149C3.67879 20.4459 3.78262 20.2936 3.91292 20.1674L11.3504 12.9674C11.4752 12.8421 11.623 12.7436 11.7852 12.6777C11.9473 12.6118 12.1207 12.5798 12.295 12.5836C12.4693 12.5873 12.6412 12.6268 12.8006 12.6997C12.9599 12.7725 13.1035 12.8773 13.2231 13.0079C13.3426 13.1385 13.4356 13.2923 13.4967 13.4603C13.5578 13.6283 13.5857 13.8071 13.5789 13.9863C13.572 14.1656 13.5305 14.3416 13.4568 14.5041C13.383 14.6667 13.2786 14.8125 13.1494 14.933L8.12167 19.8002H25.8124C26.6246 19.8002 27.4036 19.4683 27.9779 18.8776C28.5523 18.2868 28.8749 17.4856 28.8749 16.6502V8.5502C28.8749 8.19215 29.0132 7.84878 29.2593 7.5956C29.5055 7.34243 29.8393 7.2002 30.1874 7.2002C30.5355 7.2002 30.8694 7.34243 31.1155 7.5956C31.3616 7.84878 31.4999 8.19215 31.4999 8.5502V16.6502C31.4999 18.2017 30.9007 19.6897 29.8341 20.7868C28.7675 21.8839 27.3208 22.5002 25.8124 22.5002H8.12167Z" fill="black"/>
</svg>
