<svg width="35" height="36" viewBox="0 0 35 36" fill="none" xmlns="http://www.w3.org/2000/svg">
<path d="M8.12167 22.5L13.1494 27.3672C13.3955 27.6143 13.5374 27.9509 13.5447 28.3046C13.5519 28.6583 13.4239 29.0008 13.1881 29.2584C12.9524 29.516 12.6277 29.6681 12.284 29.682C11.9404 29.6959 11.6051 29.5705 11.3504 29.3328L3.91292 22.1327C3.78262 22.0065 3.67879 21.8542 3.60782 21.6852C3.53685 21.5162 3.50024 21.3341 3.50024 21.15C3.50024 20.9658 3.53685 20.7837 3.60782 20.6147C3.67879 20.4457 3.78262 20.2934 3.91292 20.1672L11.3504 12.9672C11.4752 12.8418 11.623 12.7434 11.7852 12.6775C11.9473 12.6116 12.1207 12.5796 12.295 12.5833C12.4693 12.5871 12.6412 12.6266 12.8006 12.6994C12.9599 12.7723 13.1035 12.8771 13.2231 13.0077C13.3426 13.1383 13.4356 13.2921 13.4967 13.4601C13.5578 13.628 13.5857 13.8069 13.5789 13.9861C13.572 14.1653 13.5305 14.3413 13.4568 14.5039C13.383 14.6664 13.2786 14.8122 13.1494 14.9328L8.12167 19.8H25.8124C26.6246 19.8 27.4036 19.4681 27.9779 18.8773C28.5523 18.2866 28.8749 17.4854 28.8749 16.65V8.54995C28.8749 8.19191 29.0132 7.84853 29.2593 7.59536C29.5055 7.34218 29.8393 7.19995 30.1874 7.19995C30.5355 7.19995 30.8694 7.34218 31.1155 7.59536C31.3616 7.84853 31.4999 8.19191 31.4999 8.54995V16.65C31.4999 18.2015 30.9007 19.6894 29.8341 20.7865C28.7675 21.8836 27.3208 22.5 25.8124 22.5H8.12167Z" fill="black"/>
</svg>
