<svg width="57" height="44" viewBox="0 0 57 44" fill="none" xmlns="http://www.w3.org/2000/svg">
<rect width="57" height="44" rx="20" fill="#2F80ED"/>
<path d="M39.4725 5.48161C39.1967 5.2682 38.8691 5.09888 38.5084 4.98335C38.1477 4.86782 37.7611 4.80835 37.3706 4.80835C36.9801 4.80835 36.5934 4.86782 36.2327 4.98335C35.8721 5.09888 35.5445 5.2682 35.2687 5.48161L15.5324 20.7166C15.3123 20.8862 15.1376 21.0877 15.0184 21.3095C14.8992 21.5313 14.8379 21.769 14.8379 22.0091C14.8379 22.2492 14.8992 22.487 15.0184 22.7088C15.1376 22.9305 15.3123 23.132 15.5324 23.3016L35.2687 38.5366C36.4324 39.4349 38.3087 39.4349 39.4725 38.5366C40.6362 37.6383 40.6362 36.1899 39.4725 35.2916L22.2774 21.9999L39.4962 8.70828C40.6362 7.82828 40.6362 6.36161 39.4725 5.48161Z" fill="white"/>
</svg>
