<svg width="36" height="33" viewBox="0 0 36 33" fill="none" xmlns="http://www.w3.org/2000/svg">
<path d="M23.75 19.125H22.565L22.145 18.7538C23.6658 17.1368 24.5017 15.0725 24.5 12.9375C24.5 11.1698 23.9282 9.44186 22.8568 7.9721C21.7855 6.50233 20.2627 5.35679 18.4812 4.68033C16.6996 4.00387 14.7392 3.82688 12.8479 4.17174C10.9566 4.51659 9.21927 5.36781 7.85571 6.61774C6.49215 7.86767 5.56355 9.46018 5.18735 11.1939C4.81114 12.9276 5.00422 14.7246 5.74218 16.3577C6.48013 17.9909 7.72982 19.3867 9.33319 20.3688C10.9366 21.3508 12.8216 21.875 14.75 21.875C17.165 21.875 19.385 21.0638 21.095 19.7163L21.5 20.1013V21.1875L29 28.0488L31.235 26L23.75 19.125ZM14.75 19.125C11.015 19.125 8 16.3613 8 12.9375C8 9.51375 11.015 6.75 14.75 6.75C18.485 6.75 21.5 9.51375 21.5 12.9375C21.5 16.3613 18.485 19.125 14.75 19.125Z" fill="black"/>
</svg>
