<svg width="393" height="47" viewBox="0 0 393 47" fill="none" xmlns="http://www.w3.org/2000/svg">
<path opacity="0.35" d="M354.5 20.373C354.5 19.1763 355.47 18.2063 356.667 18.2063H373.333C374.53 18.2063 375.5 19.1763 375.5 20.373V26.373C375.5 27.5696 374.53 28.5396 373.333 28.5396H356.667C355.47 28.5396 354.5 27.5696 354.5 26.373V20.373Z" stroke="black"/>
<path opacity="0.4" d="M377 21.373V25.373C377.805 25.0343 378.328 24.2462 378.328 23.373C378.328 22.4999 377.805 21.7118 377 21.373Z" fill="black"/>
<path d="M356 21.0396C356 20.3033 356.597 19.7063 357.333 19.7063H372.667C373.403 19.7063 374 20.3033 374 21.0396V25.7063C374 26.4427 373.403 27.0396 372.667 27.0396H357.333C356.597 27.0396 356 26.4427 356 25.7063V21.0396Z" fill="black"/>
<path fill-rule="evenodd" clip-rule="evenodd" d="M341.33 19.9809C343.546 19.981 345.677 20.8325 347.283 22.3593C347.404 22.4771 347.598 22.4757 347.717 22.3559L348.873 21.1893C348.933 21.1286 348.967 21.0463 348.966 20.9607C348.966 20.8751 348.931 20.7933 348.87 20.7333C344.655 16.6937 338.005 16.6937 333.79 20.7333C333.729 20.7932 333.694 20.8751 333.694 20.9607C333.693 21.0462 333.727 21.1285 333.787 21.1893L334.943 22.3559C335.062 22.4758 335.256 22.4773 335.377 22.3593C336.983 20.8324 339.114 19.9809 341.33 19.9809ZM341.33 23.7766C342.548 23.7765 343.722 24.2291 344.624 25.0463C344.746 25.1623 344.939 25.1597 345.058 25.0406L346.212 23.8739C346.273 23.8127 346.307 23.7297 346.306 23.6435C346.305 23.5572 346.27 23.4749 346.208 23.4149C343.459 20.8586 339.204 20.8586 336.455 23.4149C336.393 23.4749 336.358 23.5572 336.357 23.6435C336.356 23.7298 336.39 23.8128 336.451 23.8739L337.605 25.0406C337.724 25.1597 337.917 25.1623 338.039 25.0463C338.941 24.2296 340.114 23.7771 341.33 23.7766ZM343.643 26.3304C343.645 26.4169 343.611 26.5003 343.549 26.5609L341.552 28.5766C341.493 28.6358 341.414 28.6692 341.33 28.6692C341.247 28.6692 341.167 28.6358 341.109 28.5766L339.111 26.5609C339.049 26.5003 339.015 26.4169 339.017 26.3304C339.019 26.2438 339.056 26.1619 339.121 26.1039C340.396 25.0251 342.264 25.0251 343.54 26.1039C343.604 26.162 343.642 26.2439 343.643 26.3304Z" fill="black"/>
<path fill-rule="evenodd" clip-rule="evenodd" d="M327.667 18.0396H326.667C326.114 18.0396 325.667 18.4873 325.667 19.0396V27.7062C325.667 28.2585 326.114 28.7062 326.667 28.7062H327.667C328.219 28.7062 328.667 28.2585 328.667 27.7062V19.0396C328.667 18.4873 328.219 18.0396 327.667 18.0396ZM322 20.3729H323C323.552 20.3729 324 20.8206 324 21.3729V27.7062C324 28.2585 323.552 28.7062 323 28.7062H322C321.448 28.7062 321 28.2585 321 27.7062V21.3729C321 20.8206 321.448 20.3729 322 20.3729ZM318.333 22.7062H317.333C316.781 22.7062 316.333 23.1539 316.333 23.7062V27.7062C316.333 28.2585 316.781 28.7062 317.333 28.7062H318.333C318.886 28.7062 319.333 28.2585 319.333 27.7062V23.7062C319.333 23.1539 318.886 22.7062 318.333 22.7062ZM313.667 24.7062H312.667C312.114 24.7062 311.667 25.1539 311.667 25.7062V27.7062C311.667 28.2585 312.114 28.7062 312.667 28.7062H313.667C314.219 28.7062 314.667 28.2585 314.667 27.7062V25.7062C314.667 25.1539 314.219 24.7062 313.667 24.7062Z" fill="black"/>
<path d="M37.3207 28.6294C40.0087 28.6294 41.6053 26.5273 41.6053 22.9678C41.6053 21.6274 41.349 20.4995 40.8583 19.6279C40.1478 18.2729 38.9247 17.5405 37.3793 17.5405C35.0795 17.5405 33.4535 19.0859 33.4535 21.2539C33.4535 23.29 34.9183 24.7695 36.9325 24.7695C38.1703 24.7695 39.1737 24.1909 39.6718 23.1875H39.6937C39.6937 23.1875 39.723 23.1875 39.7303 23.1875C39.745 23.1875 39.7963 23.1875 39.7963 23.1875C39.7963 25.6045 38.8807 27.0474 37.3353 27.0474C36.4271 27.0474 35.724 26.5493 35.4823 25.751H33.6C33.9149 27.4868 35.3871 28.6294 37.3207 28.6294ZM37.3866 23.2681C36.1708 23.2681 35.3065 22.4038 35.3065 21.1953C35.3065 20.0161 36.2147 19.1152 37.3939 19.1152C38.5731 19.1152 39.4813 20.0308 39.4813 21.2246C39.4813 22.4038 38.5951 23.2681 37.3866 23.2681Z" fill="black"/>
<path d="M44.6965 28.5269C45.3923 28.5269 45.8683 28.0288 45.8683 27.3696C45.8683 26.7031 45.3923 26.2124 44.6965 26.2124C44.008 26.2124 43.5246 26.7031 43.5246 27.3696C43.5246 28.0288 44.008 28.5269 44.6965 28.5269ZM44.6965 23.0337C45.3923 23.0337 45.8683 22.543 45.8683 21.8838C45.8683 21.2173 45.3923 20.7266 44.6965 20.7266C44.008 20.7266 43.5246 21.2173 43.5246 21.8838C43.5246 22.543 44.008 23.0337 44.6965 23.0337Z" fill="black"/>
<path d="M52.7241 28.373H54.5332V26.4028H55.9614V24.8062H54.5332V17.8042H51.8672C49.9995 20.6167 48.5127 22.9678 47.5605 24.7183V26.4028H52.7241V28.373ZM49.311 24.7402C50.5415 22.5723 51.6401 20.8364 52.6509 19.3423H52.7534V24.8501H49.311V24.7402Z" fill="black"/>
<path d="M59.99 28.373H61.8797V17.8042H59.9973L57.2361 19.7378V21.5542L59.8655 19.7085H59.99V28.373Z" fill="black"/>
</svg>
