<svg width="392" height="44" viewBox="0 0 392 44" fill="none" xmlns="http://www.w3.org/2000/svg">
<path d="M27.3235 27.0889C30.0115 27.0889 31.6082 24.9868 31.6082 21.4272C31.6082 20.0869 31.3518 18.959 30.8611 18.0874C30.1506 16.7324 28.9275 16 27.3821 16C25.0823 16 23.4563 17.5454 23.4563 19.7134C23.4563 21.7495 24.9211 23.229 26.9353 23.229C28.1731 23.229 29.1765 22.6504 29.6746 21.647H29.6965C29.6965 21.647 29.7258 21.647 29.7332 21.647C29.7478 21.647 29.7991 21.647 29.7991 21.647C29.7991 24.064 28.8835 25.5068 27.3381 25.5068C26.4299 25.5068 25.7268 25.0088 25.4851 24.2104H23.6028C23.9177 25.9463 25.3899 27.0889 27.3235 27.0889ZM27.3894 21.7275C26.1736 21.7275 25.3093 20.8633 25.3093 19.6548C25.3093 18.4756 26.2175 17.5747 27.3967 17.5747C28.5759 17.5747 29.4841 18.4902 29.4841 19.6841C29.4841 20.8633 28.5979 21.7275 27.3894 21.7275Z" fill="white"/>
<path d="M34.6993 26.9863C35.3951 26.9863 35.8711 26.4883 35.8711 25.8291C35.8711 25.1626 35.3951 24.6719 34.6993 24.6719C34.0108 24.6719 33.5274 25.1626 33.5274 25.8291C33.5274 26.4883 34.0108 26.9863 34.6993 26.9863ZM34.6993 21.4932C35.3951 21.4932 35.8711 21.0024 35.8711 20.3433C35.8711 19.6768 35.3951 19.186 34.6993 19.186C34.0108 19.186 33.5274 19.6768 33.5274 20.3433C33.5274 21.0024 34.0108 21.4932 34.6993 21.4932Z" fill="white"/>
<path d="M42.7269 26.8325H44.536V24.8623H45.9642V23.2656H44.536V16.2637H41.87C40.0023 19.0762 38.5155 21.4272 37.5633 23.1777V24.8623H42.7269V26.8325ZM39.3138 23.1997C40.5443 21.0317 41.6429 19.2959 42.6537 17.8018H42.7562V23.3096H39.3138V23.1997Z" fill="white"/>
<path d="M49.9928 26.8325H51.8825V16.2637H50.0001L47.2389 18.1973V20.0137L49.8683 18.168H49.9928V26.8325Z" fill="white"/>
<path opacity="0.35" d="M344.716 18.6693C344.716 17.4727 345.686 16.5027 346.882 16.5027H363.549C364.746 16.5027 365.716 17.4727 365.716 18.6694V24.6694C365.716 25.866 364.746 26.836 363.549 26.836H346.882C345.686 26.836 344.716 25.866 344.716 24.6694V18.6693Z" stroke="white"/>
<path opacity="0.4" d="M367.216 19.6694V23.6694C368.02 23.3307 368.544 22.5426 368.544 21.6694C368.544 20.7963 368.02 20.0082 367.216 19.6694Z" fill="white"/>
<path d="M346.216 19.336C346.216 18.5996 346.813 18.0027 347.549 18.0027H362.882C363.619 18.0027 364.216 18.5996 364.216 19.336V24.0027C364.216 24.7391 363.619 25.336 362.882 25.336H347.549C346.813 25.336 346.216 24.7391 346.216 24.0027V19.336Z" fill="white"/>
<path fill-rule="evenodd" clip-rule="evenodd" d="M331.546 18.2773C333.762 18.2774 335.893 19.1289 337.499 20.6557C337.62 20.7735 337.813 20.772 337.932 20.6523L339.088 19.4857C339.149 19.4249 339.182 19.3427 339.182 19.2571C339.181 19.1715 339.147 19.0897 339.086 19.0297C334.871 14.9901 328.221 14.9901 324.006 19.0297C323.945 19.0896 323.91 19.1715 323.909 19.257C323.909 19.3426 323.942 19.4249 324.003 19.4857L325.159 20.6523C325.278 20.7722 325.472 20.7737 325.592 20.6557C327.199 19.1288 329.33 18.2773 331.546 18.2773ZM331.546 22.073C332.764 22.0729 333.938 22.5255 334.84 23.3427C334.962 23.4586 335.154 23.4561 335.273 23.337L336.428 22.1703C336.489 22.1091 336.523 22.0261 336.522 21.9399C336.521 21.8536 336.485 21.7713 336.423 21.7113C333.675 19.1549 329.419 19.1549 326.671 21.7113C326.609 21.7713 326.574 21.8536 326.573 21.9399C326.572 22.0262 326.606 22.1092 326.667 22.1703L327.821 23.337C327.94 23.4561 328.132 23.4586 328.254 23.3427C329.156 22.526 330.329 22.0735 331.546 22.073ZM333.859 24.6268C333.861 24.7133 333.827 24.7967 333.765 24.8573L331.768 26.873C331.709 26.9322 331.629 26.9656 331.546 26.9656C331.463 26.9656 331.383 26.9322 331.324 26.873L329.327 24.8573C329.265 24.7967 329.231 24.7132 329.233 24.6267C329.235 24.5402 329.272 24.4583 329.336 24.4003C330.612 23.3214 332.48 23.3214 333.756 24.4003C333.82 24.4584 333.857 24.5403 333.859 24.6268Z" fill="white"/>
<path fill-rule="evenodd" clip-rule="evenodd" d="M317.882 16.3359H316.882C316.33 16.3359 315.882 16.7837 315.882 17.3359V26.0026C315.882 26.5549 316.33 27.0026 316.882 27.0026H317.882C318.435 27.0026 318.882 26.5549 318.882 26.0026V17.3359C318.882 16.7837 318.435 16.3359 317.882 16.3359ZM312.216 18.6693H313.216C313.768 18.6693 314.216 19.117 314.216 19.6693V26.0026C314.216 26.5549 313.768 27.0026 313.216 27.0026H312.216C311.663 27.0026 311.216 26.5549 311.216 26.0026V19.6693C311.216 19.117 311.663 18.6693 312.216 18.6693ZM308.549 21.0026H307.549C306.997 21.0026 306.549 21.4503 306.549 22.0026V26.0026C306.549 26.5549 306.997 27.0026 307.549 27.0026H308.549C309.101 27.0026 309.549 26.5549 309.549 26.0026V22.0026C309.549 21.4503 309.101 21.0026 308.549 21.0026ZM303.882 23.0026H302.882C302.33 23.0026 301.882 23.4503 301.882 24.0026V26.0026C301.882 26.5549 302.33 27.0026 302.882 27.0026H303.882C304.435 27.0026 304.882 26.5549 304.882 26.0026V24.0026C304.882 23.4503 304.435 23.0026 303.882 23.0026Z" fill="white"/>
</svg>
