<svg width="392" height="44" viewBox="0 0 392 44" fill="none" xmlns="http://www.w3.org/2000/svg">
<path d="M27.3234 27.0889C30.0114 27.0889 31.608 24.9868 31.608 21.4272C31.608 20.0869 31.3517 18.959 30.861 18.0874C30.1505 16.7324 28.9274 16 27.382 16C25.0822 16 23.4562 17.5454 23.4562 19.7134C23.4562 21.7495 24.921 23.229 26.9352 23.229C28.173 23.229 29.1764 22.6504 29.6744 21.647H29.6964C29.6964 21.647 29.7257 21.647 29.733 21.647C29.7477 21.647 29.799 21.647 29.799 21.647C29.799 24.064 28.8834 25.5068 27.338 25.5068C26.4298 25.5068 25.7267 25.0088 25.485 24.2104H23.6027C23.9176 25.9463 25.3898 27.0889 27.3234 27.0889ZM27.3893 21.7275C26.1735 21.7275 25.3092 20.8633 25.3092 19.6548C25.3092 18.4756 26.2174 17.5747 27.3966 17.5747C28.5758 17.5747 29.484 18.4902 29.484 19.6841C29.484 20.8633 28.5978 21.7275 27.3893 21.7275Z" fill="white"/>
<path d="M34.6991 26.9863C35.3949 26.9863 35.871 26.4883 35.871 25.8291C35.871 25.1626 35.3949 24.6719 34.6991 24.6719C34.0107 24.6719 33.5273 25.1626 33.5273 25.8291C33.5273 26.4883 34.0107 26.9863 34.6991 26.9863ZM34.6991 21.4932C35.3949 21.4932 35.871 21.0024 35.871 20.3433C35.871 19.6768 35.3949 19.186 34.6991 19.186C34.0107 19.186 33.5273 19.6768 33.5273 20.3433C33.5273 21.0024 34.0107 21.4932 34.6991 21.4932Z" fill="white"/>
<path d="M42.7268 26.8325H44.5359V24.8623H45.9641V23.2656H44.5359V16.2637H41.8698C40.0022 19.0762 38.5154 21.4272 37.5632 23.1777V24.8623H42.7268V26.8325ZM39.3137 23.1997C40.5442 21.0317 41.6428 19.2959 42.6535 17.8018H42.7561V23.3096H39.3137V23.1997Z" fill="white"/>
<path d="M49.9927 26.8325H51.8823V16.2637H50L47.2388 18.1973V20.0137L49.8682 18.168H49.9927V26.8325Z" fill="white"/>
<path opacity="0.35" d="M344.716 18.6693C344.716 17.4727 345.686 16.5027 346.882 16.5027H363.549C364.746 16.5027 365.716 17.4727 365.716 18.6694V24.6694C365.716 25.866 364.746 26.836 363.549 26.836H346.882C345.686 26.836 344.716 25.866 344.716 24.6694V18.6693Z" stroke="white"/>
<path opacity="0.4" d="M367.216 19.6693V23.6693C368.021 23.3306 368.544 22.5425 368.544 21.6693C368.544 20.7962 368.021 20.0081 367.216 19.6693Z" fill="white"/>
<path d="M346.216 19.336C346.216 18.5996 346.813 18.0027 347.549 18.0027H362.882C363.619 18.0027 364.216 18.5996 364.216 19.336V24.0027C364.216 24.7391 363.619 25.336 362.882 25.336H347.549C346.813 25.336 346.216 24.7391 346.216 24.0027V19.336Z" fill="white"/>
<path fill-rule="evenodd" clip-rule="evenodd" d="M331.546 18.2773C333.762 18.2774 335.893 19.1289 337.499 20.6557C337.62 20.7735 337.813 20.772 337.932 20.6523L339.088 19.4857C339.149 19.4249 339.182 19.3427 339.182 19.2571C339.181 19.1715 339.147 19.0897 339.086 19.0297C334.871 14.9901 328.221 14.9901 324.006 19.0297C323.945 19.0896 323.91 19.1715 323.91 19.257C323.909 19.3426 323.943 19.4249 324.003 19.4857L325.159 20.6523C325.278 20.7722 325.472 20.7737 325.592 20.6557C327.199 19.1288 329.33 18.2773 331.546 18.2773ZM331.546 22.073C332.764 22.0729 333.938 22.5255 334.84 23.3427C334.962 23.4586 335.154 23.4561 335.273 23.337L336.428 22.1703C336.489 22.1091 336.523 22.0261 336.522 21.9399C336.521 21.8536 336.486 21.7713 336.423 21.7113C333.675 19.1549 329.419 19.1549 326.671 21.7113C326.609 21.7713 326.574 21.8536 326.573 21.9399C326.572 22.0262 326.606 22.1092 326.667 22.1703L327.821 23.337C327.94 23.4561 328.132 23.4586 328.254 23.3427C329.156 22.526 330.329 22.0735 331.546 22.073ZM333.859 24.6268C333.861 24.7133 333.827 24.7967 333.765 24.8573L331.768 26.873C331.709 26.9322 331.629 26.9656 331.546 26.9656C331.463 26.9656 331.383 26.9322 331.324 26.873L329.327 24.8573C329.265 24.7967 329.231 24.7132 329.233 24.6267C329.235 24.5402 329.272 24.4583 329.336 24.4003C330.612 23.3214 332.48 23.3214 333.756 24.4003C333.82 24.4584 333.857 24.5403 333.859 24.6268Z" fill="white"/>
<path fill-rule="evenodd" clip-rule="evenodd" d="M317.882 16.3359H316.882C316.33 16.3359 315.882 16.7837 315.882 17.3359V26.0026C315.882 26.5549 316.33 27.0026 316.882 27.0026H317.882C318.435 27.0026 318.882 26.5549 318.882 26.0026V17.3359C318.882 16.7837 318.435 16.3359 317.882 16.3359ZM312.216 18.6693H313.216C313.768 18.6693 314.216 19.117 314.216 19.6693V26.0026C314.216 26.5549 313.768 27.0026 313.216 27.0026H312.216C311.664 27.0026 311.216 26.5549 311.216 26.0026V19.6693C311.216 19.117 311.664 18.6693 312.216 18.6693ZM308.549 21.0026H307.549C306.997 21.0026 306.549 21.4503 306.549 22.0026V26.0026C306.549 26.5549 306.997 27.0026 307.549 27.0026H308.549C309.101 27.0026 309.549 26.5549 309.549 26.0026V22.0026C309.549 21.4503 309.101 21.0026 308.549 21.0026ZM303.882 23.0026H302.882C302.33 23.0026 301.882 23.4503 301.882 24.0026V26.0026C301.882 26.5549 302.33 27.0026 302.882 27.0026H303.882C304.435 27.0026 304.882 26.5549 304.882 26.0026V24.0026C304.882 23.4503 304.435 23.0026 303.882 23.0026Z" fill="white"/>
</svg>
