<svg width="21" height="19" viewBox="0 0 21 19" fill="none" xmlns="http://www.w3.org/2000/svg">
<path fill-rule="evenodd" clip-rule="evenodd" d="M12.5565 0.136288C13.7947 0.526666 14.6417 1.78656 14.3665 2.99943L13.8645 5.98345C13.8454 6.11406 13.8867 6.18608 13.9232 6.22453C13.9655 6.26912 14.0348 6.30327 14.1258 6.30327H18.1762C19.1412 6.30327 19.9915 6.66671 20.509 7.3191C21.0284 7.97369 21.1427 8.83188 20.8188 9.68222L18.3994 16.5173C18.1909 17.2605 17.6669 17.8753 17.0425 18.2996C16.4112 18.7286 15.6242 19 14.8346 19H10.9868C10.6096 19 10.1597 18.9431 9.74021 18.8318C9.35464 18.7295 8.89974 18.5565 8.56522 18.2646L5.45885 16.0309L6.38868 14.9154L9.5658 17.1999L9.59984 17.2316C9.66732 17.2942 9.84961 17.3936 10.1575 17.4753C10.4468 17.5521 10.7563 17.5893 10.9868 17.5893H14.8346C15.2602 17.5893 15.7389 17.4374 16.1456 17.1611C16.5517 16.8851 16.8326 16.5219 16.9332 16.1485L16.9398 16.1236L19.3817 9.22513L19.385 9.21669C19.5632 8.75327 19.4739 8.39253 19.2862 8.15595C19.095 7.91487 18.7302 7.71401 18.1762 7.71401H14.1258C13.0693 7.71401 12.1929 6.87565 12.3614 5.78028L12.3628 5.77114L12.8729 2.73936L12.8782 2.71743C12.9902 2.24904 12.6321 1.64672 12.063 1.47052L12.0496 1.46639L12.0365 1.46181C11.831 1.39022 11.5608 1.39186 11.2843 1.48017C11.0026 1.5701 10.7994 1.72275 10.7073 1.85097L10.7057 1.85318L6.55407 7.59022L5.29346 6.80326L9.44352 1.06842C9.44382 1.06801 9.44412 1.06759 9.44442 1.06718C9.7575 0.631736 10.2626 0.314583 10.7905 0.146039C11.3201 -0.0230472 11.9559 -0.0690067 12.5565 0.136288Z" fill="white"/>
<path fill-rule="evenodd" clip-rule="evenodd" d="M1.75556 5.38731C1.6556 5.47301 1.5189 5.67737 1.5189 6.25624V15.4731C1.5189 16.052 1.6556 16.2564 1.75556 16.3421C1.87044 16.4405 2.13404 16.5547 2.78465 16.5547H3.79725C4.44786 16.5547 4.71146 16.4405 4.82635 16.3421C4.92631 16.2564 5.063 16.052 5.063 15.4731V6.25624C5.063 5.67737 4.92631 5.47301 4.82635 5.38731C4.71146 5.28882 4.44786 5.17466 3.79725 5.17466H2.78465C2.13404 5.17466 1.87044 5.28882 1.75556 5.38731ZM0.725316 4.35069C1.26862 3.88489 2.01762 3.76392 2.78465 3.76392H3.79725C4.56428 3.76392 5.31328 3.88489 5.85659 4.35069C6.41482 4.82929 6.5819 5.51841 6.5819 6.25624V15.4731C6.5819 16.211 6.41482 16.9001 5.85659 17.3787C5.31328 17.8445 4.56428 17.9655 3.79725 17.9655H2.78465C2.01762 17.9655 1.26862 17.8445 0.725316 17.3787C0.167085 16.9001 0 16.211 0 15.4731V6.25624C0 5.51841 0.167085 4.82929 0.725316 4.35069Z" fill="white"/>
</svg>
