<svg width="21" height="21" viewBox="0 0 21 21" fill="none" xmlns="http://www.w3.org/2000/svg">
<path fill-rule="evenodd" clip-rule="evenodd" d="M12.4002 0.14491C13.623 0.559986 14.4594 1.89959 14.1877 3.18919L13.6919 6.362C13.673 6.50087 13.7138 6.57745 13.7499 6.61833C13.7917 6.66574 13.8602 6.70204 13.95 6.70204H17.95C18.9029 6.70204 19.7427 7.08848 20.2538 7.78214C20.7666 8.47815 20.8795 9.39063 20.5597 10.2948L18.1704 17.5623C17.9645 18.3525 17.447 19.0062 16.8304 19.4573C16.207 19.9135 15.4298 20.202 14.65 20.202H10.85C10.4776 20.202 10.0333 20.1416 9.61896 20.0232C9.23818 19.9144 8.78894 19.7305 8.45859 19.4201L5.39087 17.0451L6.30913 15.859L9.44672 18.2881L9.48033 18.3217C9.54698 18.3884 9.727 18.494 10.031 18.5809C10.3167 18.6625 10.6224 18.702 10.85 18.702H14.65C15.0702 18.702 15.543 18.5406 15.9446 18.2468C16.3457 17.9533 16.6231 17.5672 16.7224 17.1701L16.729 17.1437L19.1405 9.80876L19.1437 9.79979C19.3197 9.30705 19.2316 8.92349 19.0462 8.67194C18.8573 8.41561 18.4971 8.20204 17.95 8.20204H13.95C12.9067 8.20204 12.0412 7.31064 12.2075 6.14598L12.2089 6.13625L12.7127 2.91266L12.7179 2.88935C12.8285 2.39133 12.4749 1.7509 11.9128 1.56356L11.8997 1.55917L11.8867 1.55429C11.6837 1.47817 11.4169 1.47992 11.1438 1.57381C10.8656 1.66943 10.6649 1.83174 10.574 1.96807L10.5725 1.97042L6.47247 8.07042L5.22754 7.23367L9.32596 1.13602C9.32626 1.13558 9.32655 1.13513 9.32685 1.13469C9.63603 0.671703 10.1349 0.334485 10.6562 0.155279C11.1792 -0.0245053 11.807 -0.0733724 12.4002 0.14491Z" fill="white"/>
<path fill-rule="evenodd" clip-rule="evenodd" d="M1.73371 5.72812C1.63499 5.81924 1.5 6.03653 1.5 6.65201V16.452C1.5 17.0675 1.63499 17.2848 1.73371 17.3759C1.84716 17.4806 2.10748 17.602 2.75 17.602H3.75C4.39252 17.602 4.65284 17.4806 4.76629 17.3759C4.86501 17.2848 5 17.0675 5 16.452V6.65201C5 6.03653 4.86501 5.81924 4.76629 5.72812C4.65284 5.62339 4.39252 5.50201 3.75 5.50201H2.75C2.10748 5.50201 1.84716 5.62339 1.73371 5.72812ZM0.71629 4.62591C1.25284 4.13064 1.99252 4.00201 2.75 4.00201H3.75C4.50748 4.00201 5.24716 4.13064 5.78371 4.62591C6.33499 5.13479 6.5 5.8675 6.5 6.65201V16.452C6.5 17.2365 6.33499 17.9692 5.78371 18.4781C5.24716 18.9734 4.50748 19.102 3.75 19.102H2.75C1.99252 19.102 1.25284 18.9734 0.71629 18.4781C0.165005 17.9692 0 17.2365 0 16.452V6.65201C0 5.8675 0.165005 5.13479 0.71629 4.62591Z" fill="white"/>
</svg>
