<svg width="67" height="67" viewBox="0 0 67 67" fill="none" xmlns="http://www.w3.org/2000/svg">
<path d="M33.7083 62.9167H33.7086C37.8914 62.9187 41.8156 62.1259 45.4864 60.5409C49.167 58.9517 52.3636 56.7983 55.0808 54.0811C55.0808 54.081 55.0809 54.081 55.0809 54.0809M33.7083 62.9167L64.4167 32.7083C64.4167 36.9563 63.6101 40.9484 61.9968 44.6846C60.3836 48.4208 58.1962 51.6707 55.4345 54.4345L55.0809 54.0809M33.7083 62.9167C29.5255 62.9167 25.6011 62.1228 21.9303 60.5378M33.7083 62.9167L21.9303 60.5378M55.0809 54.0809C57.7961 51.3637 59.9486 48.167 61.5378 44.4864C63.1228 40.8155 63.9167 36.8912 63.9167 32.7083V32.7081C63.9187 28.5253 63.1259 24.6011 61.5409 20.9303C59.9517 17.2497 57.7983 14.0531 55.0811 11.3359C52.3638 8.62061 49.1671 6.46811 45.4864 4.87885C41.8156 3.29388 37.8913 2.50003 33.7086 2.5L55.0809 54.0809ZM21.9303 60.5378C18.2496 58.9486 15.053 56.7961 12.3357 54.0809M21.9303 60.5378L12.3357 54.0809M12.3357 54.0809C9.61853 51.3637 7.46611 48.1671 5.87895 44.4866C4.29593 40.8157 3.50205 36.8913 3.5 32.7083L12.3357 54.0809ZM19.0613 21.6533L22.6533 18.0613L33.3548 28.7627L33.7083 29.1163L34.0619 28.7627L44.7633 18.0613L48.3554 21.6533L37.6539 32.3548L37.3004 32.7083L37.6539 33.0619L48.3554 43.7633L44.7633 47.3554L34.0619 36.6539L33.7083 36.3004L33.3548 36.6539L22.6533 47.3554L19.0613 43.7633L29.7627 33.0619L30.1163 32.7083L29.7627 32.3548L19.0613 21.6533ZM3.5 32.7081C3.50003 28.5253 4.29388 24.6011 5.87885 20.9303C7.46809 17.2496 9.62054 14.053 12.3357 11.3357C15.053 8.61853 18.2495 6.46611 21.9301 4.87895C25.601 3.29593 29.5254 2.50205 33.7083 2.5L3.5 32.7081ZM33.7083 57.775C40.6963 57.775 46.6333 55.3444 51.4889 50.4889C56.3444 45.6333 58.775 39.6963 58.775 32.7083C58.775 25.7203 56.3444 19.7833 51.4889 14.9278C46.6333 10.0723 40.6963 7.64167 33.7083 7.64167C26.7203 7.64167 20.7833 10.0723 15.9278 14.9278C11.0723 19.7833 8.64167 25.7203 8.64167 32.7083C8.64167 39.6963 11.0723 45.6333 15.9278 50.4889C20.7833 55.3444 26.7203 57.775 33.7083 57.775Z" fill="#FF0000" stroke="black"/>
</svg>
