<svg width="35" height="34" viewBox="0 0 35 34" fill="none" xmlns="http://www.w3.org/2000/svg">
<path d="M20.2158 17V28.1633C20.2725 28.5883 20.1308 29.0417 19.805 29.3392C19.6739 29.4705 19.5183 29.5747 19.3469 29.6458C19.1755 29.7169 18.9918 29.7535 18.8063 29.7535C18.6207 29.7535 18.437 29.7169 18.2656 29.6458C18.0942 29.5747 17.9386 29.4705 17.8075 29.3392L14.96 26.4917C14.8055 26.3406 14.688 26.1559 14.6167 25.9519C14.5455 25.7479 14.5224 25.5302 14.5492 25.3158V17H14.5067L6.34668 6.545C6.11662 6.24967 6.01282 5.87528 6.05794 5.50365C6.10307 5.13202 6.29346 4.79336 6.58751 4.56167C6.85668 4.36333 7.15418 4.25 7.46584 4.25H27.2992C27.6108 4.25 27.9083 4.36333 28.1775 4.56167C28.4716 4.79336 28.662 5.13202 28.7071 5.50365C28.7522 5.87528 28.6484 6.24967 28.4183 6.545L20.2583 17H20.2158Z" fill="black"/>
</svg>
