<svg width="36" height="31" viewBox="0 0 36 31" fill="none" xmlns="http://www.w3.org/2000/svg">
<path d="M21 15.5V25.6783C21.06 26.0658 20.91 26.4792 20.565 26.7504C20.4262 26.8702 20.2613 26.9652 20.0799 27.03C19.8984 27.0948 19.7039 27.1282 19.5075 27.1282C19.311 27.1282 19.1165 27.0948 18.935 27.03C18.7536 26.9652 18.5887 26.8702 18.45 26.7504L15.435 24.1542C15.2714 24.0165 15.147 23.848 15.0715 23.662C14.996 23.4761 14.9715 23.2776 15 23.0821V15.5H14.955L6.31495 5.9675C6.07136 5.69823 5.96145 5.35687 6.00923 5.01803C6.05702 4.67919 6.2586 4.37041 6.56995 4.15917C6.85495 3.97833 7.16995 3.875 7.49995 3.875H28.5C28.83 3.875 29.145 3.97833 29.43 4.15917C29.7413 4.37041 29.9429 4.67919 29.9907 5.01803C30.0385 5.35687 29.9285 5.69823 29.685 5.9675L21.045 15.5H21Z" fill="black"/>
</svg>
