<svg width="51" height="47" viewBox="0 0 51 47" fill="none" xmlns="http://www.w3.org/2000/svg">
<path fill-rule="evenodd" clip-rule="evenodd" d="M25.5 42.5938C29.1373 42.5987 32.7112 41.717 35.8594 40.0381V33.7812C35.8594 32.0283 35.1038 30.3472 33.7588 29.1077C32.4138 27.8682 30.5896 27.1719 28.6875 27.1719H22.3125C20.4104 27.1719 18.5862 27.8682 17.2412 29.1077C15.8962 30.3472 15.1406 32.0283 15.1406 33.7812V40.0381C18.2888 41.717 21.8627 42.5987 25.5 42.5938ZM40.6406 33.7812V36.5337C43.3969 33.8145 45.2309 30.4123 45.9172 26.7454C46.6036 23.0785 46.1123 19.3068 44.5039 15.8937C42.8954 12.4807 40.2399 9.57511 36.8637 7.53423C33.4874 5.49334 29.5377 4.40607 25.5 4.40607C21.4623 4.40607 17.5126 5.49334 14.1363 7.53423C10.7601 9.57511 8.10457 12.4807 6.49612 15.8937C4.88767 19.3068 4.39643 23.0785 5.08277 26.7454C5.76911 30.4123 7.60313 33.8145 10.3594 36.5337V33.7812C10.3593 31.5102 11.1206 29.2946 12.539 27.4375C13.9574 25.5803 15.9637 24.1723 18.2835 23.406C17.0799 22.1301 16.2999 20.5621 16.0365 18.889C15.7732 17.2159 16.0377 15.5083 16.7984 13.9698C17.5591 12.4314 18.7839 11.1271 20.3268 10.2125C21.8697 9.29785 23.6655 8.81154 25.5 8.81154C27.3345 8.81154 29.1303 9.29785 30.6732 10.2125C32.2161 11.1271 33.4409 12.4314 34.2016 13.9698C34.9623 15.5083 35.2268 17.2159 34.9635 18.889C34.7001 20.5621 33.9201 22.1301 32.7165 23.406C35.0363 24.1723 37.0426 25.5803 38.461 27.4375C39.8794 29.2946 40.6407 31.5102 40.6406 33.7812ZM25.5 47C32.263 47 38.749 44.5241 43.5312 40.117C48.3134 35.7099 51 29.7326 51 23.5C51 17.2674 48.3134 11.2901 43.5312 6.88299C38.749 2.47589 32.263 0 25.5 0C18.737 0 12.251 2.47589 7.46878 6.88299C2.6866 11.2901 0 17.2674 0 23.5C0 29.7326 2.6866 35.7099 7.46878 40.117C12.251 44.5241 18.737 47 25.5 47ZM30.2812 17.625C30.2812 18.7936 29.7775 19.9144 28.8809 20.7407C27.9842 21.567 26.7681 22.0312 25.5 22.0312C24.2319 22.0312 23.0158 21.567 22.1191 20.7407C21.2225 19.9144 20.7188 18.7936 20.7188 17.625C20.7188 16.4564 21.2225 15.3356 22.1191 14.5093C23.0158 13.683 24.2319 13.2188 25.5 13.2188C26.7681 13.2188 27.9842 13.683 28.8809 14.5093C29.7775 15.3356 30.2812 16.4564 30.2812 17.625Z" fill="black"/>
</svg>
