<svg width="51" height="51" viewBox="0 0 51 51" fill="none" xmlns="http://www.w3.org/2000/svg">
<path fill-rule="evenodd" clip-rule="evenodd" d="M25.5 46.2188C29.1373 46.2241 32.7112 45.2674 35.8594 43.4456V36.6562C35.8594 34.7542 35.1038 32.93 33.7588 31.585C32.4138 30.24 30.5896 29.4844 28.6875 29.4844H22.3125C20.4104 29.4844 18.5862 30.24 17.2412 31.585C15.8962 32.93 15.1406 34.7542 15.1406 36.6562V43.4456C18.2888 45.2674 21.8627 46.2241 25.5 46.2188ZM40.6406 36.6562V39.6429C43.3969 36.6923 45.2309 33.0006 45.9172 29.0216C46.6036 25.0427 46.1123 20.9499 44.5039 17.2464C42.8954 13.5428 40.2399 10.39 36.8637 8.17544C33.4874 5.96086 29.5377 4.78106 25.5 4.78106C21.4623 4.78106 17.5126 5.96086 14.1363 8.17544C10.7601 10.39 8.10457 13.5428 6.49612 17.2464C4.88767 20.9499 4.39643 25.0427 5.08277 29.0216C5.76911 33.0006 7.60313 36.6923 10.3594 39.6429V36.6562C10.3593 34.1919 11.1206 31.7878 12.539 29.7726C13.9574 27.7573 15.9637 26.2295 18.2835 25.398C17.0799 24.0136 16.2999 22.3121 16.0365 20.4966C15.7732 18.6811 16.0377 16.8281 16.7984 15.1587C17.5591 13.4894 18.7839 12.0741 20.3268 11.0816C21.8697 10.0892 23.6655 9.56146 25.5 9.56146C27.3345 9.56146 29.1303 10.0892 30.6732 11.0816C32.2161 12.0741 33.4409 13.4894 34.2016 15.1587C34.9623 16.8281 35.2268 18.6811 34.9635 20.4966C34.7001 22.3121 33.9201 24.0136 32.7165 25.398C35.0363 26.2295 37.0426 27.7573 38.461 29.7726C39.8794 31.7878 40.6407 34.1919 40.6406 36.6562ZM25.5 51C32.263 51 38.749 48.3134 43.5312 43.5312C48.3134 38.749 51 32.263 51 25.5C51 18.737 48.3134 12.251 43.5312 7.46878C38.749 2.6866 32.263 0 25.5 0C18.737 0 12.251 2.6866 7.46878 7.46878C2.6866 12.251 0 18.737 0 25.5C0 32.263 2.6866 38.749 7.46878 43.5312C12.251 48.3134 18.737 51 25.5 51ZM30.2812 19.125C30.2812 20.3931 29.7775 21.6092 28.8809 22.5059C27.9842 23.4025 26.7681 23.9062 25.5 23.9062C24.2319 23.9062 23.0158 23.4025 22.1191 22.5059C21.2225 21.6092 20.7188 20.3931 20.7188 19.125C20.7188 17.8569 21.2225 16.6408 22.1191 15.7441C23.0158 14.8475 24.2319 14.3438 25.5 14.3438C26.7681 14.3438 27.9842 14.8475 28.8809 15.7441C29.7775 16.6408 30.2812 17.8569 30.2812 19.125Z" fill="black"/>
</svg>
