<svg width="36" height="39" viewBox="0 0 36 39" fill="none" xmlns="http://www.w3.org/2000/svg">
<path d="M18.2007 12.7464C19.9086 12.7464 21.5465 13.4358 22.7542 14.663C23.9619 15.8902 24.6404 17.5547 24.6404 19.2902C24.6404 21.0257 23.9619 22.6902 22.7542 23.9174C21.5465 25.1446 19.9086 25.834 18.2007 25.834C16.4927 25.834 14.8548 25.1446 13.6471 23.9174C12.4394 22.6902 11.7609 21.0257 11.7609 19.2902C11.7609 17.5547 12.4394 15.8902 13.6471 14.663C14.8548 13.4358 16.4927 12.7464 18.2007 12.7464ZM18.2007 16.0183C17.3467 16.0183 16.5277 16.363 15.9239 16.9766C15.32 17.5902 14.9808 18.4225 14.9808 19.2902C14.9808 20.158 15.32 20.9902 15.9239 21.6038C16.5277 22.2174 17.3467 22.5621 18.2007 22.5621C19.0546 22.5621 19.8736 22.2174 20.4774 21.6038C21.0813 20.9902 21.4205 20.158 21.4205 19.2902C21.4205 18.4225 21.0813 17.5902 20.4774 16.9766C19.8736 16.363 19.0546 16.0183 18.2007 16.0183ZM14.9808 35.6498C14.5783 35.6498 14.2402 35.3553 14.1758 34.9627L13.5802 30.6274C12.5659 30.2184 11.6965 29.6622 10.8594 29.0078L6.85065 30.6601C6.49646 30.791 6.06178 30.6601 5.86859 30.3002L2.64873 24.6398C2.55019 24.4712 2.51545 24.272 2.55101 24.0793C2.58657 23.8866 2.68998 23.7136 2.84192 23.5928L6.23887 20.8771L6.12618 19.2902L6.23887 17.6543L2.84192 14.9877C2.68998 14.8668 2.58657 14.6939 2.55101 14.5012C2.51545 14.3085 2.55019 14.1092 2.64873 13.9406L5.86859 8.28024C6.06178 7.92033 6.49646 7.77309 6.85065 7.92033L10.8594 9.55628C11.6965 8.91826 12.5659 8.36204 13.5802 7.95305L14.1758 3.61777C14.2402 3.22514 14.5783 2.93066 14.9808 2.93066H21.4205C21.823 2.93066 22.1611 3.22514 22.2255 3.61777L22.8212 7.95305C23.8354 8.36204 24.7048 8.91826 25.5419 9.55628L29.5507 7.92033C29.9049 7.77309 30.3395 7.92033 30.5327 8.28024L33.7526 13.9406C33.9619 14.3006 33.8653 14.7423 33.5594 14.9877L30.1624 17.6543L30.2751 19.2902L30.1624 20.9262L33.5594 23.5928C33.8653 23.8382 33.9619 24.2799 33.7526 24.6398L30.5327 30.3002C30.3395 30.6601 29.9049 30.8073 29.5507 30.6601L25.5419 29.0241C24.7048 29.6622 23.8354 30.2184 22.8212 30.6274L22.2255 34.9627C22.1611 35.3553 21.823 35.6498 21.4205 35.6498H14.9808ZM16.9932 6.20257L16.3975 10.4724C14.4656 10.8814 12.7591 11.9284 11.5194 13.3844L7.63951 11.683L6.43206 13.8098L9.82902 16.3455C9.18505 18.2541 9.18505 20.3263 9.82902 22.2349L6.41596 24.787L7.62341 26.9138L11.5355 25.2124C12.7752 26.652 14.4656 27.699 16.3814 28.0917L16.9771 32.3779H19.4242L20.0199 28.108C21.9357 27.699 23.6261 26.652 24.8658 25.2124L28.7779 26.9138L29.9854 24.787L26.5723 22.2513C27.2163 20.3372 27.2163 18.2596 26.5723 16.3455L29.9693 13.8098L28.7618 11.683L24.8819 13.3844C23.6168 11.8962 21.9008 10.8776 20.0038 10.4888L19.4081 6.20257H16.9932Z" fill="white"/>
</svg>
