<svg width="37" height="39" viewBox="0 0 37 39" fill="none" xmlns="http://www.w3.org/2000/svg">
<path d="M18.9005 12.7464C20.6085 12.7464 22.2464 13.4358 23.4541 14.663C24.6618 15.8902 25.3403 17.5547 25.3403 19.2902C25.3403 21.0257 24.6618 22.6902 23.4541 23.9174C22.2464 25.1446 20.6085 25.834 18.9005 25.834C17.1926 25.834 15.5547 25.1446 14.347 23.9174C13.1393 22.6902 12.4608 21.0257 12.4608 19.2902C12.4608 17.5547 13.1393 15.8902 14.347 14.663C15.5547 13.4358 17.1926 12.7464 18.9005 12.7464ZM18.9005 16.0183C18.0466 16.0183 17.2276 16.363 16.6238 16.9766C16.0199 17.5902 15.6807 18.4225 15.6807 19.2902C15.6807 20.158 16.0199 20.9902 16.6238 21.6038C17.2276 22.2174 18.0466 22.5621 18.9005 22.5621C19.7545 22.5621 20.5735 22.2174 21.1773 21.6038C21.7812 20.9902 22.1204 20.158 22.1204 19.2902C22.1204 18.4225 21.7812 17.5902 21.1773 16.9766C20.5735 16.363 19.7545 16.0183 18.9005 16.0183ZM15.6807 35.6498C15.2782 35.6498 14.9401 35.3553 14.8757 34.9627L14.28 30.6274C13.2658 30.2184 12.3964 29.6622 11.5593 29.0078L7.55054 30.6601C7.19635 30.791 6.76167 30.6601 6.56848 30.3002L3.34862 24.6398C3.25008 24.4712 3.21534 24.272 3.2509 24.0793C3.28646 23.8866 3.38987 23.7136 3.54181 23.5928L6.93876 20.8771L6.82607 19.2902L6.93876 17.6543L3.54181 14.9877C3.38987 14.8668 3.28646 14.6939 3.2509 14.5012C3.21534 14.3085 3.25008 14.1092 3.34862 13.9406L6.56848 8.28024C6.76167 7.92033 7.19635 7.77309 7.55054 7.92033L11.5593 9.55628C12.3964 8.91826 13.2658 8.36204 14.28 7.95305L14.8757 3.61777C14.9401 3.22514 15.2782 2.93066 15.6807 2.93066H22.1204C22.5229 2.93066 22.861 3.22514 22.9254 3.61777L23.5211 7.95305C24.5353 8.36204 25.4047 8.91826 26.2418 9.55628L30.2506 7.92033C30.6047 7.77309 31.0394 7.92033 31.2326 8.28024L34.4525 13.9406C34.6618 14.3006 34.5652 14.7423 34.2593 14.9877L30.8623 17.6543L30.975 19.2902L30.8623 20.9262L34.2593 23.5928C34.5652 23.8382 34.6618 24.2799 34.4525 24.6398L31.2326 30.3002C31.0394 30.6601 30.6047 30.8073 30.2506 30.6601L26.2418 29.0241C25.4047 29.6622 24.5353 30.2184 23.5211 30.6274L22.9254 34.9627C22.861 35.3553 22.5229 35.6498 22.1204 35.6498H15.6807ZM17.6931 6.20257L17.0974 10.4724C15.1655 10.8814 13.459 11.9284 12.2193 13.3844L8.3394 11.683L7.13195 13.8098L10.5289 16.3455C9.88494 18.2541 9.88494 20.3263 10.5289 22.2349L7.11585 24.787L8.3233 26.9138L12.2354 25.2124C13.4751 26.652 15.1655 27.699 17.0813 28.0917L17.677 32.3779H20.1241L20.7198 28.108C22.6356 27.699 24.326 26.652 25.5657 25.2124L29.4778 26.9138L30.6852 24.787L27.2722 22.2513C27.9162 20.3372 27.9162 18.2596 27.2722 16.3455L30.6691 13.8098L29.4617 11.683L25.5818 13.3844C24.3167 11.8962 22.6007 10.8776 20.7037 10.4888L20.108 6.20257H17.6931Z" fill="black"/>
</svg>
