<svg width="37" height="39" viewBox="0 0 37 39" fill="none" xmlns="http://www.w3.org/2000/svg">
<path d="M18.9007 12.7465C20.6086 12.7465 22.2466 13.436 23.4542 14.6632C24.6619 15.8904 25.3404 17.5548 25.3404 19.2903C25.3404 21.0259 24.6619 22.6903 23.4542 23.9175C22.2466 25.1447 20.6086 25.8342 18.9007 25.8342C17.1928 25.8342 15.5548 25.1447 14.3471 23.9175C13.1394 22.6903 12.4609 21.0259 12.4609 19.2903C12.4609 17.5548 13.1394 15.8904 14.3471 14.6632C15.5548 13.436 17.1928 12.7465 18.9007 12.7465ZM18.9007 16.0184C18.0467 16.0184 17.2277 16.3631 16.6239 16.9767C16.02 17.5903 15.6808 18.4226 15.6808 19.2903C15.6808 20.1581 16.02 20.9903 16.6239 21.6039C17.2277 22.2175 18.0467 22.5622 18.9007 22.5622C19.7546 22.5622 20.5736 22.2175 21.1775 21.6039C21.7813 20.9903 22.1205 20.1581 22.1205 19.2903C22.1205 18.4226 21.7813 17.5903 21.1775 16.9767C20.5736 16.3631 19.7546 16.0184 18.9007 16.0184ZM15.6808 35.6499C15.2783 35.6499 14.9402 35.3554 14.8758 34.9628L14.2802 30.6275C13.2659 30.2185 12.3966 29.6623 11.5594 29.0079L7.55066 30.6602C7.19647 30.7911 6.76179 30.6602 6.5686 30.3003L3.34874 24.6399C3.2502 24.4713 3.21547 24.2721 3.25102 24.0794C3.28658 23.8867 3.39 23.7137 3.54193 23.5929L6.93888 20.8772L6.82619 19.2903L6.93888 17.6544L3.54193 14.9878C3.39 14.8669 3.28658 14.694 3.25102 14.5013C3.21547 14.3086 3.2502 14.1093 3.34874 13.9408L6.5686 8.28036C6.76179 7.92045 7.19647 7.77321 7.55066 7.92045L11.5594 9.5564C12.3966 8.91838 13.2659 8.36216 14.2802 7.95317L14.8758 3.61789C14.9402 3.22526 15.2783 2.93079 15.6808 2.93079H22.1205C22.523 2.93079 22.8611 3.22526 22.9255 3.61789L23.5212 7.95317C24.5354 8.36216 25.4048 8.91838 26.242 9.5564L30.2507 7.92045C30.6049 7.77321 31.0396 7.92045 31.2327 8.28036L34.4526 13.9408C34.6619 14.3007 34.5653 14.7424 34.2594 14.9878L30.8625 17.6544L30.9752 19.2903L30.8625 20.9263L34.2594 23.5929C34.5653 23.8383 34.6619 24.28 34.4526 24.6399L31.2327 30.3003C31.0396 30.6602 30.6049 30.8075 30.2507 30.6602L26.242 29.0243C25.4048 29.6623 24.5354 30.2185 23.5212 30.6275L22.9255 34.9628C22.8611 35.3554 22.523 35.6499 22.1205 35.6499H15.6808ZM17.6932 6.2027L17.0975 10.4725C15.1656 10.8815 13.4591 11.9285 12.2195 13.3845L8.33952 11.6831L7.13208 13.8099L10.529 16.3456C9.88506 18.2542 9.88506 20.3264 10.529 22.2351L7.11598 24.7871L8.32343 26.9139L12.2356 25.2125C13.4752 26.6521 15.1656 27.6991 17.0814 28.0918L17.6771 32.378H20.1242L20.7199 28.1081C22.6357 27.6991 24.3261 26.6521 25.5658 25.2125L29.4779 26.9139L30.6854 24.7871L27.2723 22.2514C27.9163 20.3373 27.9163 18.2597 27.2723 16.3456L30.6693 13.8099L29.4618 11.6831L25.5819 13.3845C24.3168 11.8963 22.6008 10.8777 20.7038 10.4889L20.1081 6.2027H17.6932Z" fill="black"/>
</svg>
