<svg width="44" height="41" viewBox="0 0 44 41" fill="none" xmlns="http://www.w3.org/2000/svg">
<path d="M34.4909 6C34.0046 6 33.5383 6.17998 33.1945 6.50036C32.8507 6.82073 32.6575 7.25526 32.6575 7.70833V14.5417C32.6575 14.9947 32.4644 15.4293 32.1206 15.7496C31.7767 16.07 31.3104 16.25 30.8242 16.25H13.2425L15.6259 14.0463C15.9711 13.7246 16.165 13.2883 16.165 12.8333C16.165 12.3784 15.9711 11.9421 15.6259 11.6204C15.2806 11.2987 14.8124 11.118 14.3242 11.118C13.836 11.118 13.3677 11.2987 13.0225 11.6204L7.52252 16.7454C7.35562 16.9079 7.22478 17.0995 7.13752 17.3092C6.95416 17.7251 6.95416 18.1916 7.13752 18.6075C7.22478 18.8172 7.35562 19.0088 7.52252 19.1713L13.0225 24.2962C13.193 24.4564 13.3957 24.5835 13.6191 24.6702C13.8425 24.7569 14.0822 24.8016 14.3242 24.8016C14.5662 24.8016 14.8058 24.7569 15.0292 24.6702C15.2527 24.5835 15.4554 24.4564 15.6259 24.2962C15.7977 24.1374 15.9341 23.9485 16.0272 23.7403C16.1202 23.5321 16.1682 23.3089 16.1682 23.0833C16.1682 22.8578 16.1202 22.6345 16.0272 22.4263C15.9341 22.2182 15.7977 22.0292 15.6259 21.8704L13.2425 19.6667H30.8242C32.2829 19.6667 33.6818 19.1267 34.7133 18.1656C35.7447 17.2045 36.3242 15.9009 36.3242 14.5417V7.70833C36.3242 7.25526 36.131 6.82073 35.7872 6.50036C35.4434 6.17998 34.9771 6 34.4909 6Z" fill="black"/>
</svg>
