<svg width="47" height="45" viewBox="0 0 47 45" fill="none" xmlns="http://www.w3.org/2000/svg">
<path d="M41.1253 22.4999C40.6059 22.4999 40.1078 22.6974 39.7406 23.0491C39.3733 23.4007 39.167 23.8776 39.167 24.3749V35.6249C39.167 36.1222 38.9607 36.5991 38.5934 36.9507C38.2262 37.3023 37.728 37.4999 37.2087 37.4999H9.79199C9.27261 37.4999 8.7745 37.3023 8.40724 36.9507C8.03998 36.5991 7.83366 36.1222 7.83366 35.6249V9.37489C7.83366 8.8776 8.03998 8.40069 8.40724 8.04906C8.7745 7.69743 9.27261 7.49989 9.79199 7.49989H21.542C22.0614 7.49989 22.5595 7.30234 22.9267 6.95071C23.294 6.59908 23.5003 6.12217 23.5003 5.62489C23.5003 5.1276 23.294 4.65069 22.9267 4.29906C22.5595 3.94743 22.0614 3.74989 21.542 3.74989H9.79199C8.23385 3.74989 6.73952 4.34252 5.63774 5.39741C4.53596 6.4523 3.91699 7.88304 3.91699 9.37489V35.6249C3.91699 37.1167 4.53596 38.5475 5.63774 39.6024C6.73952 40.6573 8.23385 41.2499 9.79199 41.2499H37.2087C38.7668 41.2499 40.2611 40.6573 41.3629 39.6024C42.4647 38.5475 43.0837 37.1167 43.0837 35.6249V24.3749C43.0837 23.8776 42.8773 23.4007 42.5101 23.0491C42.1428 22.6974 41.6447 22.4999 41.1253 22.4999ZM11.7503 23.9249V31.8749C11.7503 32.3722 11.9567 32.8491 12.3239 33.2007C12.6912 33.5523 13.1893 33.7499 13.7087 33.7499H22.012C22.2697 33.7513 22.5252 33.704 22.7638 33.6107C23.0024 33.5174 23.2194 33.3799 23.4024 33.2061L36.9541 20.2124L42.5157 14.9999C42.6993 14.8256 42.845 14.6182 42.9444 14.3897C43.0438 14.1612 43.095 13.9162 43.095 13.6686C43.095 13.4211 43.0438 13.176 42.9444 12.9476C42.845 12.7191 42.6993 12.5117 42.5157 12.3374L34.2124 4.29364C34.0304 4.11789 33.8138 3.97841 33.5751 3.88321C33.3365 3.78802 33.0805 3.73901 32.822 3.73901C32.5635 3.73901 32.3075 3.78802 32.0689 3.88321C31.8302 3.97841 31.6136 4.11789 31.4316 4.29364L25.9091 9.59989L12.3182 22.5936C12.1367 22.7688 11.9931 22.9766 11.8957 23.2051C11.7982 23.4335 11.7488 23.6781 11.7503 23.9249ZM32.822 8.26864L38.3641 13.5749L35.5832 16.2374L30.0412 10.9311L32.822 8.26864ZM15.667 24.6936L27.2799 13.5749L32.822 18.8811L21.2091 29.9999H15.667V24.6936Z" fill="white"/>
</svg>
