<svg width="47" height="45" viewBox="0 0 47 45" fill="none" xmlns="http://www.w3.org/2000/svg">
<path d="M41.1248 22.4999C40.6055 22.4999 40.1073 22.6974 39.7401 23.0491C39.3728 23.4007 39.1665 23.8776 39.1665 24.3749V35.6249C39.1665 36.1222 38.9602 36.5991 38.5929 36.9507C38.2257 37.3023 37.7276 37.4999 37.2082 37.4999H9.7915C9.27212 37.4999 8.77401 37.3023 8.40675 36.9507C8.03949 36.5991 7.83317 36.1222 7.83317 35.6249V9.37489C7.83317 8.8776 8.03949 8.40069 8.40675 8.04906C8.77401 7.69743 9.27212 7.49989 9.7915 7.49989H21.5415C22.0609 7.49989 22.559 7.30234 22.9263 6.95071C23.2935 6.59908 23.4998 6.12217 23.4998 5.62489C23.4998 5.1276 23.2935 4.65069 22.9263 4.29906C22.559 3.94743 22.0609 3.74989 21.5415 3.74989H9.7915C8.23336 3.74989 6.73903 4.34252 5.63725 5.39741C4.53548 6.4523 3.9165 7.88304 3.9165 9.37489V35.6249C3.9165 37.1167 4.53548 38.5475 5.63725 39.6024C6.73903 40.6573 8.23336 41.2499 9.7915 41.2499H37.2082C38.7663 41.2499 40.2607 40.6573 41.3624 39.6024C42.4642 38.5475 43.0832 37.1167 43.0832 35.6249V24.3749C43.0832 23.8776 42.8769 23.4007 42.5096 23.0491C42.1423 22.6974 41.6442 22.4999 41.1248 22.4999ZM11.7498 23.9249V31.8749C11.7498 32.3722 11.9562 32.8491 12.3234 33.2007C12.6907 33.5523 13.1888 33.7499 13.7082 33.7499H22.0115C22.2692 33.7513 22.5247 33.704 22.7633 33.6107C23.0019 33.5174 23.2189 33.3799 23.4019 33.2061L36.9536 20.2124L42.5153 14.9999C42.6988 14.8256 42.8445 14.6182 42.9439 14.3897C43.0433 14.1612 43.0945 13.9162 43.0945 13.6686C43.0945 13.4211 43.0433 13.176 42.9439 12.9476C42.8445 12.7191 42.6988 12.5117 42.5153 12.3374L34.2119 4.29364C34.0299 4.11789 33.8133 3.97841 33.5746 3.88321C33.336 3.78802 33.08 3.73901 32.8215 3.73901C32.563 3.73901 32.307 3.78802 32.0684 3.88321C31.8297 3.97841 31.6131 4.11789 31.4311 4.29364L25.9086 9.59989L12.3178 22.5936C12.1363 22.7688 11.9927 22.9766 11.8952 23.2051C11.7977 23.4335 11.7483 23.6781 11.7498 23.9249ZM32.8215 8.26864L38.3636 13.5749L35.5828 16.2374L30.0407 10.9311L32.8215 8.26864ZM15.6665 24.6936L27.2794 13.5749L32.8215 18.8811L21.2086 29.9999H15.6665V24.6936Z" fill="white"/>
</svg>
