<svg width="31" height="31" viewBox="0 0 31 31" fill="none" xmlns="http://www.w3.org/2000/svg">
<path d="M4.52302 4.79709C4.52302 3.66095 4.97455 2.57134 5.77828 1.76797C6.582 0.964601 7.67209 0.513271 8.80873 0.513271C9.94538 0.513271 11.0355 0.964601 11.8392 1.76797C12.6429 2.57134 13.0944 3.66095 13.0944 4.79709C13.0944 5.93323 12.6429 7.02283 11.8392 7.82621C11.0355 8.62958 9.94538 9.08091 8.80873 9.08091C7.67209 9.08091 6.582 8.62958 5.77828 7.82621C4.97455 7.02283 4.52302 5.93323 4.52302 4.79709ZM8.80873 2.65518C8.24041 2.65518 7.69537 2.88085 7.2935 3.28253C6.89164 3.68422 6.66588 4.22902 6.66588 4.79709C6.66588 5.36516 6.89164 5.90996 7.2935 6.31165C7.69537 6.71333 8.24041 6.939 8.80873 6.939C9.37705 6.939 9.9221 6.71333 10.324 6.31165C10.7258 5.90996 10.9516 5.36516 10.9516 4.79709C10.9516 4.22902 10.7258 3.68422 10.324 3.28253C9.9221 2.88085 9.37705 2.65518 8.80873 2.65518ZM19.0494 8.18987C18.6005 7.84758 18.2237 7.41999 17.9406 6.93167C17.6574 6.44335 17.4737 5.90392 17.3998 5.34439C17.3259 4.78485 17.3634 4.21624 17.51 3.67122C17.6567 3.1262 17.9096 2.61551 18.2543 2.16851C18.599 1.72151 19.0287 1.347 19.5187 1.06651C20.0087 0.786014 20.5493 0.60506 21.1094 0.534046C21.6696 0.463032 22.2382 0.503357 22.7827 0.652705C23.3272 0.802052 23.8369 1.05748 24.2823 1.40431C25.1594 2.10558 25.726 3.12296 25.8602 4.23756C25.9944 5.35215 25.6855 6.47488 25 7.36416C24.3145 8.25344 23.3072 8.8382 22.1947 8.99262C21.0822 9.14705 19.9514 8.85879 19.0494 8.18987ZM21.6659 2.65518C21.0976 2.65518 20.5525 2.88085 20.1506 3.28253C19.7488 3.68422 19.523 4.22902 19.523 4.79709C19.523 5.36516 19.7488 5.90996 20.1506 6.31165C20.5525 6.71333 21.0976 6.939 21.6659 6.939C22.2342 6.939 22.7792 6.71333 23.1811 6.31165C23.583 5.90996 23.8087 5.36516 23.8087 4.79709C23.8087 4.22902 23.583 3.68422 23.1811 3.28253C22.7792 2.88085 22.2342 2.65518 21.6659 2.65518ZM3.45159 11.2228H9.17302C8.9373 11.8932 8.80873 12.6151 8.80873 13.3647H3.45159C3.16743 13.3647 2.89491 13.4776 2.69398 13.6784C2.49304 13.8792 2.38016 14.1516 2.38016 14.4357C2.38016 16.1856 3.07659 17.4836 4.17588 18.3661C4.68159 18.773 5.28802 19.1008 5.97373 19.3407C5.47018 19.8757 5.08213 20.5085 4.83373 21.1998C4.11445 20.911 3.44098 20.5192 2.83445 20.0368C1.22302 18.7409 0.237305 16.8261 0.237305 14.4357C0.237305 13.5836 0.575952 12.7664 1.17875 12.1638C1.78154 11.5613 2.59911 11.2228 3.45159 11.2228ZM11.5259 11.2228C10.9576 12.2073 10.8038 13.3771 11.0983 14.4749C11.3929 15.5727 12.1117 16.5086 13.0966 17.0767C14.0815 17.6447 15.2518 17.7985 16.3501 17.504C17.4484 17.2096 18.3847 16.4911 18.953 15.5066C19.5213 14.5222 19.6751 13.3524 19.3806 12.2546C19.086 11.1567 18.3672 10.2209 17.3823 9.6528C16.3974 9.08473 15.2271 8.931 14.1288 9.22544C13.0305 9.51987 12.0942 10.2384 11.5259 11.2228ZM14.7573 11.2764C15.0713 11.2055 15.3972 11.206 15.7109 11.2778C16.0247 11.3497 16.3183 11.4911 16.57 11.6915C16.8218 11.892 17.0253 12.1464 17.1655 12.436C17.3057 12.7256 17.3791 13.043 17.3802 13.3647C17.38 13.7677 17.2661 14.1625 17.0515 14.5037C16.837 14.8449 16.5304 15.1187 16.1672 15.2936C15.8039 15.4685 15.3987 15.5374 14.998 15.4924C14.5974 15.4474 14.2175 15.2903 13.9022 15.0392C13.5868 14.7881 13.3487 14.4532 13.2153 14.0729C13.0818 13.6926 13.0584 13.2824 13.1477 12.8894C13.237 12.4964 13.4354 12.1366 13.7201 11.8512C14.0049 11.5659 14.3644 11.3666 14.7573 11.2764ZM26.2987 18.3661C25.793 18.773 25.1866 19.1008 24.5009 19.3407C25.0037 19.8759 25.391 20.5087 25.6387 21.1998C26.3673 20.9021 27.0423 20.5144 27.6402 20.0368C29.2516 18.7409 30.2373 16.8261 30.2373 14.4357C30.2373 13.5836 29.8987 12.7664 29.2959 12.1638C28.6931 11.5613 27.8755 11.2228 27.023 11.2228H21.3016C21.5373 11.8932 21.6659 12.6151 21.6659 13.3647H27.023C27.3072 13.3647 27.5797 13.4776 27.7806 13.6784C27.9816 13.8792 28.0944 14.1516 28.0944 14.4357C28.0944 16.1856 27.398 17.4836 26.2987 18.3661ZM20.5944 19.7905C21.4469 19.7905 22.2645 20.129 22.8673 20.7315C23.4701 21.334 23.8087 22.1512 23.8087 23.0033C23.8087 25.3937 22.8252 27.3086 21.2116 28.6044C19.6237 29.8788 17.4937 30.5 15.2373 30.5C12.9809 30.5 10.8509 29.8788 9.26302 28.6044C7.65159 27.3086 6.66588 25.3937 6.66588 23.0033C6.66474 22.5811 6.74711 22.1628 6.90825 21.7725C7.06938 21.3822 7.3061 21.0275 7.6048 20.729C7.9035 20.4304 8.25829 20.1938 8.64877 20.0327C9.03926 19.8717 9.45774 19.7893 9.88016 19.7905H20.5944ZM20.5944 21.9324H9.88016C9.596 21.9324 9.32348 22.0452 9.12255 22.246C8.92162 22.4469 8.80873 22.7193 8.80873 23.0033C8.80873 24.7533 9.50516 26.0513 10.6044 26.9337C11.7316 27.8376 13.3516 28.3581 15.2373 28.3581C17.123 28.3581 18.743 27.8376 19.8702 26.9337C20.9694 26.0513 21.6659 24.7533 21.6659 23.0033C21.6659 22.7193 21.553 22.4469 21.3521 22.246C21.1511 22.0452 20.8786 21.9324 20.5944 21.9324Z" fill="black"/>
</svg>
