<svg width="31" height="31" viewBox="0 0 31 31" fill="none" xmlns="http://www.w3.org/2000/svg">
<path d="M5.27302 4.79709C5.27302 3.66095 5.72455 2.57134 6.52828 1.76797C7.332 0.964601 8.42209 0.513271 9.55873 0.513271C10.6954 0.513271 11.7855 0.964601 12.5892 1.76797C13.3929 2.57134 13.8444 3.66095 13.8444 4.79709C13.8444 5.93323 13.3929 7.02283 12.5892 7.82621C11.7855 8.62958 10.6954 9.08091 9.55873 9.08091C8.42209 9.08091 7.332 8.62958 6.52828 7.82621C5.72455 7.02283 5.27302 5.93323 5.27302 4.79709ZM9.55873 2.65518C8.99041 2.65518 8.44537 2.88085 8.0435 3.28253C7.64164 3.68422 7.41588 4.22902 7.41588 4.79709C7.41588 5.36516 7.64164 5.90996 8.0435 6.31165C8.44537 6.71333 8.99041 6.939 9.55873 6.939C10.1271 6.939 10.6721 6.71333 11.074 6.31165C11.4758 5.90996 11.7016 5.36516 11.7016 4.79709C11.7016 4.22902 11.4758 3.68422 11.074 3.28253C10.6721 2.88085 10.1271 2.65518 9.55873 2.65518ZM19.7994 8.18987C19.3505 7.84758 18.9737 7.41999 18.6906 6.93167C18.4074 6.44335 18.2237 5.90392 18.1498 5.34439C18.0759 4.78485 18.1134 4.21624 18.26 3.67122C18.4067 3.1262 18.6596 2.61551 19.0043 2.16851C19.349 1.72151 19.7787 1.347 20.2687 1.06651C20.7587 0.786014 21.2993 0.60506 21.8594 0.534046C22.4196 0.463032 22.9882 0.503357 23.5327 0.652705C24.0772 0.802052 24.5869 1.05748 25.0323 1.40431C25.9094 2.10558 26.476 3.12296 26.6102 4.23756C26.7444 5.35215 26.4355 6.47488 25.75 7.36416C25.0645 8.25344 24.0572 8.8382 22.9447 8.99262C21.8322 9.14705 20.7014 8.85879 19.7994 8.18987ZM22.4159 2.65518C21.8476 2.65518 21.3025 2.88085 20.9006 3.28253C20.4988 3.68422 20.273 4.22902 20.273 4.79709C20.273 5.36516 20.4988 5.90996 20.9006 6.31165C21.3025 6.71333 21.8476 6.939 22.4159 6.939C22.9842 6.939 23.5292 6.71333 23.9311 6.31165C24.333 5.90996 24.5587 5.36516 24.5587 4.79709C24.5587 4.22902 24.333 3.68422 23.9311 3.28253C23.5292 2.88085 22.9842 2.65518 22.4159 2.65518ZM4.20159 11.2228H9.92302C9.6873 11.8932 9.55873 12.6151 9.55873 13.3647H4.20159C3.91743 13.3647 3.64491 13.4776 3.44398 13.6784C3.24304 13.8792 3.13016 14.1516 3.13016 14.4357C3.13016 16.1856 3.82659 17.4836 4.92588 18.3661C5.43159 18.773 6.03802 19.1008 6.72373 19.3407C6.22018 19.8757 5.83213 20.5085 5.58373 21.1998C4.86445 20.911 4.19098 20.5192 3.58445 20.0368C1.97302 18.7409 0.987305 16.8261 0.987305 14.4357C0.987305 13.5836 1.32595 12.7664 1.92875 12.1638C2.53154 11.5613 3.34911 11.2228 4.20159 11.2228ZM12.2759 11.2228C11.7076 12.2073 11.5538 13.3771 11.8483 14.4749C12.1429 15.5727 12.8617 16.5086 13.8466 17.0767C14.8315 17.6447 16.0018 17.7985 17.1001 17.504C18.1984 17.2096 19.1347 16.4911 19.703 15.5066C20.2713 14.5222 20.4251 13.3524 20.1306 12.2546C19.836 11.1567 19.1172 10.2209 18.1323 9.6528C17.1474 9.08473 15.9771 8.931 14.8788 9.22544C13.7805 9.51987 12.8442 10.2384 12.2759 11.2228ZM15.5073 11.2764C15.8213 11.2055 16.1472 11.206 16.4609 11.2778C16.7747 11.3497 17.0683 11.4911 17.32 11.6915C17.5718 11.892 17.7753 12.1464 17.9155 12.436C18.0557 12.7256 18.1291 13.043 18.1302 13.3647C18.13 13.7677 18.0161 14.1625 17.8015 14.5037C17.587 14.8449 17.2804 15.1187 16.9172 15.2936C16.5539 15.4685 16.1487 15.5374 15.748 15.4924C15.3474 15.4474 14.9675 15.2903 14.6522 15.0392C14.3368 14.7881 14.0987 14.4532 13.9653 14.0729C13.8318 13.6926 13.8084 13.2824 13.8977 12.8894C13.987 12.4964 14.1854 12.1366 14.4701 11.8512C14.7549 11.5659 15.1144 11.3666 15.5073 11.2764ZM27.0487 18.3661C26.543 18.773 25.9366 19.1008 25.2509 19.3407C25.7537 19.8759 26.141 20.5087 26.3887 21.1998C27.1173 20.9021 27.7923 20.5144 28.3902 20.0368C30.0016 18.7409 30.9873 16.8261 30.9873 14.4357C30.9873 13.5836 30.6487 12.7664 30.0459 12.1638C29.4431 11.5613 28.6255 11.2228 27.773 11.2228H22.0516C22.2873 11.8932 22.4159 12.6151 22.4159 13.3647H27.773C28.0572 13.3647 28.3297 13.4776 28.5306 13.6784C28.7316 13.8792 28.8444 14.1516 28.8444 14.4357C28.8444 16.1856 28.148 17.4836 27.0487 18.3661ZM21.3444 19.7905C22.1969 19.7905 23.0145 20.129 23.6173 20.7315C24.2201 21.334 24.5587 22.1512 24.5587 23.0033C24.5587 25.3937 23.5752 27.3086 21.9616 28.6044C20.3737 29.8788 18.2437 30.5 15.9873 30.5C13.7309 30.5 11.6009 29.8788 10.013 28.6044C8.40159 27.3086 7.41588 25.3937 7.41588 23.0033C7.41474 22.5811 7.49711 22.1628 7.65825 21.7725C7.81938 21.3822 8.0561 21.0275 8.3548 20.729C8.6535 20.4304 9.00829 20.1938 9.39877 20.0327C9.78926 19.8717 10.2077 19.7893 10.6302 19.7905H21.3444ZM21.3444 21.9324H10.6302C10.346 21.9324 10.0735 22.0452 9.87255 22.246C9.67162 22.4469 9.55873 22.7193 9.55873 23.0033C9.55873 24.7533 10.2552 26.0513 11.3544 26.9337C12.4816 27.8376 14.1016 28.3581 15.9873 28.3581C17.873 28.3581 19.493 27.8376 20.6202 26.9337C21.7194 26.0513 22.4159 24.7533 22.4159 23.0033C22.4159 22.7193 22.303 22.4469 22.1021 22.246C21.9011 22.0452 21.6286 21.9324 21.3444 21.9324Z" fill="black"/>
</svg>
