<svg width="31" height="31" viewBox="0 0 31 31" fill="none" xmlns="http://www.w3.org/2000/svg">
<path d="M5.02277 4.79709C5.02277 3.66095 5.4743 2.57134 6.27803 1.76797C7.08176 0.964601 8.17185 0.513271 9.30849 0.513271C10.4451 0.513271 11.5352 0.964601 12.3389 1.76797C13.1427 2.57134 13.5942 3.66095 13.5942 4.79709C13.5942 5.93323 13.1427 7.02283 12.3389 7.82621C11.5352 8.62958 10.4451 9.08091 9.30849 9.08091C8.17185 9.08091 7.08176 8.62958 6.27803 7.82621C5.4743 7.02283 5.02277 5.93323 5.02277 4.79709ZM9.30849 2.65518C8.74017 2.65518 8.19512 2.88085 7.79326 3.28253C7.3914 3.68422 7.16563 4.22902 7.16563 4.79709C7.16563 5.36516 7.3914 5.90996 7.79326 6.31165C8.19512 6.71333 8.74017 6.939 9.30849 6.939C9.87681 6.939 10.4219 6.71333 10.8237 6.31165C11.2256 5.90996 11.4513 5.36516 11.4513 4.79709C11.4513 4.22902 11.2256 3.68422 10.8237 3.28253C10.4219 2.88085 9.87681 2.65518 9.30849 2.65518ZM19.5492 8.18987C19.1003 7.84758 18.7234 7.41999 18.4403 6.93167C18.1572 6.44335 17.9734 5.90392 17.8995 5.34439C17.8257 4.78485 17.8631 4.21624 18.0098 3.67122C18.1564 3.1262 18.4094 2.61551 18.7541 2.16851C19.0988 1.72151 19.5285 1.347 20.0184 1.06651C20.5084 0.786014 21.049 0.60506 21.6092 0.534046C22.1693 0.463032 22.738 0.503357 23.2825 0.652705C23.827 0.802052 24.3366 1.05748 24.7821 1.40431C25.6591 2.10558 26.2257 3.12296 26.3599 4.23756C26.4942 5.35215 26.1853 6.47488 25.4998 7.36416C24.8143 8.25344 23.8069 8.8382 22.6945 8.99262C21.582 9.14705 20.4512 8.85879 19.5492 8.18987ZM22.1656 2.65518C21.5973 2.65518 21.0523 2.88085 20.6504 3.28253C20.2485 3.68422 20.0228 4.22902 20.0228 4.79709C20.0228 5.36516 20.2485 5.90996 20.6504 6.31165C21.0523 6.71333 21.5973 6.939 22.1656 6.939C22.734 6.939 23.279 6.71333 23.6809 6.31165C24.0827 5.90996 24.3085 5.36516 24.3085 4.79709C24.3085 4.22902 24.0827 3.68422 23.6809 3.28253C23.279 2.88085 22.734 2.65518 22.1656 2.65518ZM3.95135 11.2228H9.67277C9.43706 11.8932 9.30849 12.6151 9.30849 13.3647H3.95135C3.66719 13.3647 3.39466 13.4776 3.19373 13.6784C2.9928 13.8792 2.87992 14.1516 2.87992 14.4357C2.87992 16.1856 3.57635 17.4836 4.67563 18.3661C5.18135 18.773 5.78777 19.1008 6.47349 19.3407C5.96994 19.8757 5.58189 20.5085 5.33349 21.1998C4.6142 20.911 3.94074 20.5192 3.3342 20.0368C1.72277 18.7409 0.737061 16.8261 0.737061 14.4357C0.737061 13.5836 1.07571 12.7664 1.6785 12.1638C2.2813 11.5613 3.09886 11.2228 3.95135 11.2228ZM12.0256 11.2228C11.4573 12.2073 11.3035 13.3771 11.5981 14.4749C11.8926 15.5727 12.6114 16.5086 13.5963 17.0767C14.5812 17.6447 15.7516 17.7985 16.8499 17.504C17.9482 17.2096 18.8845 16.4911 19.4528 15.5066C20.0211 14.5222 20.1749 13.3524 19.8803 12.2546C19.5858 11.1567 18.867 10.2209 17.8821 9.6528C16.8972 9.08473 15.7268 8.931 14.6285 9.22544C13.5302 9.51987 12.594 10.2384 12.0256 11.2228ZM15.2571 11.2764C15.571 11.2055 15.8969 11.206 16.2107 11.2778C16.5244 11.3497 16.818 11.4911 17.0698 11.6915C17.3215 11.892 17.525 12.1464 17.6653 12.436C17.8055 12.7256 17.8788 13.043 17.8799 13.3647C17.8798 13.7677 17.7658 14.1625 17.5513 14.5037C17.3367 14.8449 17.0302 15.1187 16.6669 15.2936C16.3037 15.4685 15.8985 15.5374 15.4978 15.4924C15.0971 15.4474 14.7173 15.2903 14.4019 15.0392C14.0866 14.7881 13.8485 14.4532 13.715 14.0729C13.5815 13.6926 13.5581 13.2824 13.6474 12.8894C13.7367 12.4964 13.9352 12.1366 14.2199 11.8512C14.5046 11.5659 14.8641 11.3666 15.2571 11.2764ZM26.7985 18.3661C26.2928 18.773 25.6863 19.1008 25.0006 19.3407C25.5034 19.8759 25.8907 20.5087 26.1385 21.1998C26.8671 20.9021 27.5421 20.5144 28.1399 20.0368C29.7513 18.7409 30.7371 16.8261 30.7371 14.4357C30.7371 13.5836 30.3984 12.7664 29.7956 12.1638C29.1928 11.5613 28.3753 11.2228 27.5228 11.2228H21.8013C22.0371 11.8932 22.1656 12.6151 22.1656 13.3647H27.5228C27.8069 13.3647 28.0795 13.4776 28.2804 13.6784C28.4813 13.8792 28.5942 14.1516 28.5942 14.4357C28.5942 16.1856 27.8978 17.4836 26.7985 18.3661ZM21.0942 19.7905C21.9467 19.7905 22.7643 20.129 23.367 20.7315C23.9698 21.334 24.3085 22.1512 24.3085 23.0033C24.3085 25.3937 23.3249 27.3086 21.7113 28.6044C20.1235 29.8788 17.9935 30.5 15.7371 30.5C13.4806 30.5 11.3506 29.8788 9.76277 28.6044C8.15135 27.3086 7.16563 25.3937 7.16563 23.0033C7.1645 22.5811 7.24687 22.1628 7.408 21.7725C7.56913 21.3822 7.80585 21.0275 8.10455 20.729C8.40325 20.4304 8.75804 20.1938 9.14853 20.0327C9.53901 19.8717 9.95749 19.7893 10.3799 19.7905H21.0942ZM21.0942 21.9324H10.3799C10.0958 21.9324 9.82323 22.0452 9.6223 22.246C9.42137 22.4469 9.30849 22.7193 9.30849 23.0033C9.30849 24.7533 10.0049 26.0513 11.1042 26.9337C12.2313 27.8376 13.8513 28.3581 15.7371 28.3581C17.6228 28.3581 19.2428 27.8376 20.3699 26.9337C21.4692 26.0513 22.1656 24.7533 22.1656 23.0033C22.1656 22.7193 22.0527 22.4469 21.8518 22.246C21.6509 22.0452 21.3784 21.9324 21.0942 21.9324Z" fill="black"/>
</svg>
