<svg width="31" height="31" viewBox="0 0 31 31" fill="none" xmlns="http://www.w3.org/2000/svg">
<path d="M5.01783 4.79709C5.01783 3.66095 5.46936 2.57134 6.27309 1.76797C7.07681 0.964601 8.1669 0.513271 9.30354 0.513271C10.4402 0.513271 11.5303 0.964601 12.334 1.76797C13.1377 2.57134 13.5893 3.66095 13.5893 4.79709C13.5893 5.93323 13.1377 7.02283 12.334 7.82621C11.5303 8.62958 10.4402 9.08091 9.30354 9.08091C8.1669 9.08091 7.07681 8.62958 6.27309 7.82621C5.46936 7.02283 5.01783 5.93323 5.01783 4.79709ZM9.30354 2.65518C8.73522 2.65518 8.19018 2.88085 7.78832 3.28253C7.38645 3.68422 7.16069 4.22902 7.16069 4.79709C7.16069 5.36516 7.38645 5.90996 7.78832 6.31165C8.19018 6.71333 8.73522 6.939 9.30354 6.939C9.87187 6.939 10.4169 6.71333 10.8188 6.31165C11.2206 5.90996 11.4464 5.36516 11.4464 4.79709C11.4464 4.22902 11.2206 3.68422 10.8188 3.28253C10.4169 2.88085 9.87187 2.65518 9.30354 2.65518ZM19.5443 8.18987C19.0953 7.84758 18.7185 7.41999 18.4354 6.93167C18.1523 6.44335 17.9685 5.90392 17.8946 5.34439C17.8207 4.78485 17.8582 4.21624 18.0048 3.67122C18.1515 3.1262 18.4044 2.61551 18.7491 2.16851C19.0939 1.72151 19.5235 1.347 20.0135 1.06651C20.5035 0.786014 21.0441 0.60506 21.6042 0.534046C22.1644 0.463032 22.733 0.503357 23.2775 0.652705C23.8221 0.802052 24.3317 1.05748 24.7771 1.40431C25.6542 2.10558 26.2208 3.12296 26.355 4.23756C26.4892 5.35215 26.1804 6.47488 25.4948 7.36416C24.8093 8.25344 23.802 8.8382 22.6895 8.99262C21.5771 9.14705 20.4463 8.85879 19.5443 8.18987ZM22.1607 2.65518C21.5924 2.65518 21.0473 2.88085 20.6455 3.28253C20.2436 3.68422 20.0178 4.22902 20.0178 4.79709C20.0178 5.36516 20.2436 5.90996 20.6455 6.31165C21.0473 6.71333 21.5924 6.939 22.1607 6.939C22.729 6.939 23.2741 6.71333 23.6759 6.31165C24.0778 5.90996 24.3035 5.36516 24.3035 4.79709C24.3035 4.22902 24.0778 3.68422 23.6759 3.28253C23.2741 2.88085 22.729 2.65518 22.1607 2.65518ZM3.9464 11.2228H9.66783C9.43212 11.8932 9.30354 12.6151 9.30354 13.3647H3.9464C3.66224 13.3647 3.38972 13.4776 3.18879 13.6784C2.98786 13.8792 2.87497 14.1516 2.87497 14.4357C2.87497 16.1856 3.5714 17.4836 4.67069 18.3661C5.1764 18.773 5.78283 19.1008 6.46854 19.3407C5.96499 19.8757 5.57695 20.5085 5.32855 21.1998C4.60926 20.911 3.93579 20.5192 3.32926 20.0368C1.71783 18.7409 0.732117 16.8261 0.732117 14.4357C0.732117 13.5836 1.07076 12.7664 1.67356 12.1638C2.27635 11.5613 3.09392 11.2228 3.9464 11.2228ZM12.0207 11.2228C11.4524 12.2073 11.2986 13.3771 11.5931 14.4749C11.8877 15.5727 12.6065 16.5086 13.5914 17.0767C14.5763 17.6447 15.7466 17.7985 16.8449 17.504C17.9432 17.2096 18.8795 16.4911 19.4478 15.5066C20.0162 14.5222 20.1699 13.3524 19.8754 12.2546C19.5808 11.1567 18.862 10.2209 17.8771 9.6528C16.8922 9.08473 15.7219 8.931 14.6236 9.22544C13.5253 9.51987 12.589 10.2384 12.0207 11.2228ZM15.2521 11.2764C15.5661 11.2055 15.892 11.206 16.2057 11.2778C16.5195 11.3497 16.8131 11.4911 17.0648 11.6915C17.3166 11.892 17.5201 12.1464 17.6603 12.436C17.8005 12.7256 17.8739 13.043 17.875 13.3647C17.8748 13.7677 17.7609 14.1625 17.5463 14.5037C17.3318 14.8449 17.0252 15.1187 16.662 15.2936C16.2988 15.4685 15.8935 15.5374 15.4929 15.4924C15.0922 15.4474 14.7124 15.2903 14.397 15.0392C14.0816 14.7881 13.8435 14.4532 13.7101 14.0729C13.5766 13.6926 13.5532 13.2824 13.6425 12.8894C13.7318 12.4964 13.9302 12.1366 14.215 11.8512C14.4997 11.5659 14.8592 11.3666 15.2521 11.2764ZM26.7935 18.3661C26.2878 18.773 25.6814 19.1008 24.9957 19.3407C25.4985 19.8759 25.8858 20.5087 26.1335 21.1998C26.8621 20.9021 27.5371 20.5144 28.135 20.0368C29.7464 18.7409 30.7321 16.8261 30.7321 14.4357C30.7321 13.5836 30.3935 12.7664 29.7907 12.1638C29.1879 11.5613 28.3703 11.2228 27.5178 11.2228H21.7964C22.0321 11.8932 22.1607 12.6151 22.1607 13.3647H27.5178C27.802 13.3647 28.0745 13.4776 28.2754 13.6784C28.4764 13.8792 28.5893 14.1516 28.5893 14.4357C28.5893 16.1856 27.8928 17.4836 26.7935 18.3661ZM21.0893 19.7905C21.9417 19.7905 22.7593 20.129 23.3621 20.7315C23.9649 21.334 24.3035 22.1512 24.3035 23.0033C24.3035 25.3937 23.32 27.3086 21.7064 28.6044C20.1185 29.8788 17.9885 30.5 15.7321 30.5C13.4757 30.5 11.3457 29.8788 9.75783 28.6044C8.1464 27.3086 7.16069 25.3937 7.16069 23.0033C7.15956 22.5811 7.24193 22.1628 7.40306 21.7725C7.56419 21.3822 7.80091 21.0275 8.09961 20.729C8.39831 20.4304 8.7531 20.1938 9.14358 20.0327C9.53407 19.8717 9.95255 19.7893 10.375 19.7905H21.0893ZM21.0893 21.9324H10.375C10.0908 21.9324 9.81829 22.0452 9.61736 22.246C9.41643 22.4469 9.30354 22.7193 9.30354 23.0033C9.30354 24.7533 9.99997 26.0513 11.0993 26.9337C12.2264 27.8376 13.8464 28.3581 15.7321 28.3581C17.6178 28.3581 19.2378 27.8376 20.365 26.9337C21.4643 26.0513 22.1607 24.7533 22.1607 23.0033C22.1607 22.7193 22.0478 22.4469 21.8469 22.246C21.6459 22.0452 21.3734 21.9324 21.0893 21.9324Z" fill="black"/>
</svg>
