<svg width="27" height="25" viewBox="0 0 27 25" fill="none" xmlns="http://www.w3.org/2000/svg">
<path d="M18.75 15.125H17.565L17.145 14.7538C18.6658 13.1368 19.5017 11.0725 19.5 8.9375C19.5 7.16983 18.9282 5.44186 17.8568 3.9721C16.7855 2.50233 15.2627 1.35679 13.4812 0.680331C11.6996 0.00387248 9.73919 -0.17312 7.84787 0.171736C5.95656 0.516591 4.21927 1.36781 2.85571 2.61774C1.49215 3.86767 0.563554 5.46018 0.187348 7.19388C-0.188858 8.92759 0.00422452 10.7246 0.742179 12.3577C1.48013 13.9909 2.72982 15.3867 4.33319 16.3688C5.93657 17.3508 7.82164 17.875 9.75 17.875C12.165 17.875 14.385 17.0638 16.095 15.7163L16.5 16.1013V17.1875L24 24.0488L26.235 22L18.75 15.125ZM9.75 15.125C6.015 15.125 3 12.3613 3 8.9375C3 5.51375 6.015 2.75 9.75 2.75C13.485 2.75 16.5 5.51375 16.5 8.9375C16.5 12.3613 13.485 15.125 9.75 15.125Z" fill="black"/>
</svg>
