<svg width="32" height="33" viewBox="0 0 32 33" fill="none" xmlns="http://www.w3.org/2000/svg">
<path d="M16.3361 9.95611C18.044 9.95611 19.682 10.6455 20.8897 11.8728C22.0974 13.1 22.7758 14.7644 22.7758 16.4999C22.7758 18.2355 22.0974 19.8999 20.8897 21.1271C19.682 22.3543 18.044 23.0438 16.3361 23.0438C14.6282 23.0438 12.9902 22.3543 11.7825 21.1271C10.5748 19.8999 9.89637 18.2355 9.89637 16.4999C9.89637 14.7644 10.5748 13.1 11.7825 11.8728C12.9902 10.6455 14.6282 9.95611 16.3361 9.95611ZM16.3361 13.228C15.4821 13.228 14.6632 13.5727 14.0593 14.1863C13.4555 14.7999 13.1162 15.6322 13.1162 16.4999C13.1162 17.3677 13.4555 18.1999 14.0593 18.8135C14.6632 19.4271 15.4821 19.7718 16.3361 19.7718C17.1901 19.7718 18.009 19.4271 18.6129 18.8135C19.2167 18.1999 19.556 17.3677 19.556 16.4999C19.556 15.6322 19.2167 14.7999 18.6129 14.1863C18.009 13.5727 17.1901 13.228 16.3361 13.228ZM13.1162 32.8595C12.7138 32.8595 12.3757 32.565 12.3113 32.1724L11.7156 27.8371C10.7013 27.4281 9.83198 26.8719 8.99481 26.2175L4.98608 27.8698C4.6319 28.0007 4.19722 27.8698 4.00403 27.5099L0.784163 21.8495C0.685628 21.6809 0.650891 21.4817 0.686448 21.289C0.722004 21.0963 0.82542 20.9233 0.977355 20.8025L4.37431 18.0868L4.26161 16.4999L4.37431 14.864L0.977355 12.1974C0.82542 12.0765 0.722004 11.9036 0.686448 11.7109C0.650891 11.5182 0.685628 11.3189 0.784163 11.1504L4.00403 5.48995C4.19722 5.13004 4.6319 4.98281 4.98608 5.13004L8.99481 6.766C9.83198 6.12798 10.7013 5.57175 11.7156 5.16276L12.3113 0.827482C12.3757 0.434853 12.7138 0.140381 13.1162 0.140381H19.556C19.9584 0.140381 20.2965 0.434853 20.3609 0.827482L20.9566 5.16276C21.9709 5.57175 22.8402 6.12798 23.6774 6.766L27.6861 5.13004C28.0403 4.98281 28.475 5.13004 28.6682 5.48995L31.888 11.1504C32.0973 11.5103 32.0007 11.952 31.6948 12.1974L28.2979 14.864L28.4106 16.4999L28.2979 18.1359L31.6948 20.8025C32.0007 21.0479 32.0973 21.4896 31.888 21.8495L28.6682 27.5099C28.475 27.8698 28.0403 28.0171 27.6861 27.8698L23.6774 26.2339C22.8402 26.8719 21.9709 27.4281 20.9566 27.8371L20.3609 32.1724C20.2965 32.565 19.9584 32.8595 19.556 32.8595H13.1162ZM15.1286 3.41229L14.533 7.68213C12.6011 8.09112 10.8945 9.13813 9.65488 10.5941L5.77495 8.89274L4.5675 11.0195L7.96446 13.5552C7.32048 15.4638 7.32048 17.536 7.96446 19.4447L4.5514 21.9967L5.75885 24.1235L9.67098 22.4221C10.9106 23.8617 12.6011 24.9087 14.5169 25.3014L15.1125 29.5876H17.5596L18.1553 25.3177C20.0711 24.9087 21.7616 23.8617 23.0012 22.4221L26.9133 24.1235L28.1208 21.9967L24.7077 19.461C25.3517 17.5469 25.3517 15.4693 24.7077 13.5552L28.1047 11.0195L26.8972 8.89274L23.0173 10.5941C21.7523 9.10594 20.0363 8.08732 18.1392 7.69849L17.5435 3.41229H15.1286Z" fill="black"/>
</svg>
