<svg width="12" height="20" viewBox="0 0 12 20" fill="none" xmlns="http://www.w3.org/2000/svg">
<path d="M7.35914 10.042L0.558626 16.7619C0.20083 17.1176 0 17.5987 0 18.1002C0 18.6017 0.20083 19.0828 0.558626 19.4385C0.737213 19.6164 0.949682 19.7576 1.18378 19.854C1.41788 19.9504 1.66897 20 1.92257 20C2.17617 20 2.42726 19.9504 2.66136 19.854C2.89546 19.7576 3.10793 19.6164 3.28651 19.4385L11.4318 11.3898C11.6118 11.2133 11.7547 11.0033 11.8523 10.772C11.9498 10.5407 12 10.2926 12 10.042C12 9.79138 11.9498 9.54326 11.8523 9.31193C11.7547 9.08061 11.6118 8.87066 11.4318 8.69419L3.28651 0.550537C3.10701 0.374601 2.89413 0.235411 2.66007 0.140944C2.42602 0.0464764 2.17539 -0.00141144 1.92257 3.24249e-05C1.66975 -0.00141144 1.41912 0.0464764 1.18507 0.140944C0.951013 0.235411 0.73813 0.374601 0.558626 0.550537C0.20083 0.906206 0 1.38733 0 1.88883C0 2.39033 0.20083 2.87145 0.558626 3.22712L7.35914 10.042Z" fill="white"/>
</svg>
