<svg width="32" height="33" viewBox="0 0 32 33" fill="none" xmlns="http://www.w3.org/2000/svg">
<path d="M16.3365 9.95623C18.0444 9.95623 19.6824 10.6457 20.89 11.8729C22.0977 13.1001 22.7762 14.7645 22.7762 16.5001C22.7762 18.2356 22.0977 19.9 20.89 21.1272C19.6824 22.3544 18.0444 23.0439 16.3365 23.0439C14.6285 23.0439 12.9906 22.3544 11.7829 21.1272C10.5752 19.9 9.89674 18.2356 9.89674 16.5001C9.89674 14.7645 10.5752 13.1001 11.7829 11.8729C12.9906 10.6457 14.6285 9.95623 16.3365 9.95623ZM16.3365 13.2281C15.4825 13.2281 14.6635 13.5729 14.0597 14.1865C13.4558 14.8001 13.1166 15.6323 13.1166 16.5001C13.1166 17.3678 13.4558 18.2 14.0597 18.8136C14.6635 19.4272 15.4825 19.772 16.3365 19.772C17.1904 19.772 18.0094 19.4272 18.6132 18.8136C19.2171 18.2 19.5563 17.3678 19.5563 16.5001C19.5563 15.6323 19.2171 14.8001 18.6132 14.1865C18.0094 13.5729 17.1904 13.2281 16.3365 13.2281ZM13.1166 32.8596C12.7141 32.8596 12.376 32.5651 12.3116 32.1725L11.716 27.8372C10.7017 27.4282 9.83234 26.872 8.99518 26.2176L4.98645 27.8699C4.63226 28.0008 4.19758 27.8699 4.00439 27.51L0.784529 21.8496C0.685994 21.6811 0.651257 21.4818 0.686814 21.2891C0.722371 21.0964 0.825786 20.9235 0.977721 20.8026L4.37468 18.0869L4.26198 16.5001L4.37468 14.8641L0.977721 12.1975C0.825786 12.0767 0.722371 11.9037 0.686814 11.711C0.651257 11.5183 0.685994 11.319 0.784529 11.1505L4.00439 5.49008C4.19758 5.13017 4.63226 4.98293 4.98645 5.13017L8.99518 6.76612C9.83234 6.1281 10.7017 5.57187 11.716 5.16289L12.3116 0.827604C12.376 0.434975 12.7141 0.140503 13.1166 0.140503H19.5563C19.9588 0.140503 20.2969 0.434975 20.3613 0.827604L20.957 5.16289C21.9712 5.57187 22.8406 6.1281 23.6777 6.76612L27.6865 5.13017C28.0407 4.98293 28.4753 5.13017 28.6685 5.49008L31.8884 11.1505C32.0977 11.5104 32.0011 11.9521 31.6952 12.1975L28.2983 14.8641L28.4109 16.5001L28.2983 18.136L31.6952 20.8026C32.0011 21.048 32.0977 21.4897 31.8884 21.8496L28.6685 27.51C28.4753 27.8699 28.0407 28.0172 27.6865 27.8699L23.6777 26.234C22.8406 26.872 21.9712 27.4282 20.957 27.8372L20.3613 32.1725C20.2969 32.5651 19.9588 32.8596 19.5563 32.8596H13.1166ZM15.129 3.41241L14.5333 7.68226C12.6014 8.09124 10.8949 9.13826 9.65525 10.5943L5.77532 8.89286L4.56787 11.0196L7.96482 13.5553C7.32085 15.4639 7.32085 17.5362 7.96482 19.4448L4.55177 21.9969L5.75922 24.1236L9.67135 22.4222C10.911 23.8619 12.6014 24.9089 14.5172 25.3015L15.1129 29.5877H17.56L18.1557 25.3179C20.0715 24.9089 21.7619 23.8619 23.0016 22.4222L26.9137 24.1236L28.1212 21.9969L24.7081 19.4611C25.3521 17.5471 25.3521 15.4694 24.7081 13.5553L28.1051 11.0196L26.8976 8.89286L23.0177 10.5943C21.7526 9.10607 20.0366 8.08744 18.1396 7.69862L17.5439 3.41241H15.129Z" fill="black"/>
</svg>
