<svg width="31" height="31" viewBox="0 0 31 31" fill="none" xmlns="http://www.w3.org/2000/svg">
<path d="M4.0005 0.50019L2.88165 0.698291L3.47017 4.04872C3.13748 4.10072 2.80505 4.15435 2.47289 4.20963L2.06242 1.87258L0.943575 2.07049L1.35322 4.40152C0.991117 4.46555 0.629314 4.53127 0.267822 4.59867L0.47561 5.71975C0.837156 5.65221 1.19498 5.58734 1.5504 5.52437L1.99577 8.05971L3.11468 7.8618L2.67032 5.33216C3.00511 5.27641 3.33749 5.22288 3.66748 5.17125L4.2846 8.6841L5.40351 8.48607L4.79144 5.00235C5.32057 4.9262 5.85037 4.85483 6.38078 4.78822C7.36165 7.72711 8.57082 11.1231 10.6057 13.3057C11.1562 15.2317 11.2281 16.3092 12.6521 18.97C11.2281 21.3773 10.2182 25.4319 9.66341 29.1696L6.6337 29.5497V30.5H11.2281C12.238 27.4591 15.2678 21.3773 15.2678 21.3773C15.2678 21.3773 18.2975 27.4591 19.3074 30.5H23.9018V29.5497L20.8721 29.1696C20.3173 25.4319 19.3074 21.3773 17.6663 18.97C19.3074 16.3092 19.1922 15.1952 19.9278 13.3078C21.9634 11.1252 23.1734 7.72806 24.1547 4.78835C24.6795 4.85423 25.2086 4.92519 25.7441 5.00248L25.1321 8.48619L26.251 8.6841L26.8682 5.17125C27.1983 5.22288 27.5305 5.27641 27.8654 5.33216L27.421 7.8618L28.5399 8.05977L28.9852 5.52443C29.3406 5.58734 29.6985 5.65221 30.06 5.71975L30.2678 4.59867C29.903 4.53057 29.5415 4.465 29.1825 4.40146L29.5921 2.07036L28.4732 1.87239L28.0627 4.20944C27.7305 4.1541 27.3981 4.10046 27.0654 4.04853L27.6539 0.698101L26.5351 0.5L25.9414 3.87982C22.2097 3.34171 18.7382 3.0712 15.2678 3.0712C11.7975 3.0712 8.32573 3.34171 4.59419 3.88001L4.0005 0.50019ZM15.2678 4.20773C17.5104 4.20773 19.7536 4.32366 22.0734 4.55382C21.1845 6.76214 19.6462 9.21043 18.0841 11.0136C17.4323 11.955 16.426 12.5714 15.2678 12.5714C14.1095 12.5714 13.1032 11.955 12.4514 11.0136C10.8893 9.21043 9.35098 6.76207 8.46213 4.55382C10.7818 4.32366 13.025 4.20773 15.2678 4.20773ZM15.2678 5.47603C13.9527 5.47603 12.8061 6.75827 12.8061 8.45357C12.8061 10.1489 13.9527 11.4311 15.2678 11.4311C16.5828 11.4311 17.7294 10.1489 17.7294 8.45357C17.7294 6.75827 16.5828 5.47603 15.2678 5.47603Z" fill="black"/>
</svg>
