<svg width="31" height="31" viewBox="0 0 31 31" fill="none" xmlns="http://www.w3.org/2000/svg">
<path d="M4.41883 0.836128L3.29998 1.03423L3.8885 4.38465C3.55582 4.43665 3.22339 4.49029 2.89122 4.54557L2.48076 2.20852L1.36191 2.40643L1.77155 4.73746C1.40945 4.80149 1.04765 4.8672 0.686157 4.93461L0.893945 6.05568C1.25549 5.98815 1.61331 5.92328 1.96874 5.86031L2.41411 8.39565L3.53302 8.19774L3.08866 5.6681C3.42344 5.61235 3.75583 5.55882 4.08581 5.50718L4.70293 9.02004L5.82184 8.822L5.20978 5.33829C5.73891 5.26214 6.26871 5.19076 6.79912 5.12416C7.77999 8.06305 8.98916 11.459 11.0241 13.6417C11.5745 15.5676 11.6465 16.6451 13.0704 19.3059C11.6465 21.7133 10.6366 25.7678 10.0817 29.5055L7.05203 29.8857V30.8359H11.6465C12.6564 27.795 15.6861 21.7133 15.6861 21.7133C15.6861 21.7133 18.7158 27.795 19.7257 30.8359H24.3202V29.8857L21.2904 29.5055C20.7356 25.7678 19.7257 21.7133 18.0846 19.3059C19.7257 16.6451 19.6105 15.5311 20.3462 13.6437C22.3818 11.4611 23.5918 8.064 24.5731 5.12429C25.0978 5.19017 25.627 5.26113 26.1624 5.33841L25.5504 8.82213L26.6694 9.02004L27.2865 5.50718C27.6166 5.55882 27.9489 5.61235 28.2838 5.6681L27.8393 8.19774L28.9582 8.39571L29.4036 5.86037C29.7589 5.92328 30.1168 5.98815 30.4784 6.05568L30.6862 4.93461C30.3213 4.86651 29.9598 4.80094 29.6008 4.7374L30.0105 2.4063L28.8916 2.20833L28.481 4.54538C28.1489 4.49003 27.8164 4.43639 27.4837 4.38446L28.0723 1.03404L26.9534 0.835938L26.3597 4.21576C22.6281 3.67765 19.1565 3.40713 15.6861 3.40713C12.2158 3.40713 8.74407 3.67765 5.01253 4.21595L4.41883 0.836128ZM15.6861 4.54367C17.9287 4.54367 20.172 4.6596 22.4917 4.88976C21.6029 7.09807 20.0645 9.54637 18.5024 11.3496C17.8506 12.291 16.8443 12.9074 15.6861 12.9074C14.5279 12.9074 13.5215 12.291 12.8697 11.3496C11.3076 9.54637 9.76931 7.09801 8.88047 4.88976C11.2001 4.6596 13.4433 4.54367 15.6861 4.54367ZM15.6861 5.81197C14.371 5.81197 13.2244 7.09421 13.2244 8.7895C13.2244 10.4848 14.371 11.767 15.6861 11.767C17.0012 11.767 18.1477 10.4848 18.1477 8.7895C18.1477 7.09421 17.0012 5.81197 15.6861 5.81197Z" fill="black"/>
</svg>
