<svg width="31" height="30" viewBox="0 0 31 30" fill="none" xmlns="http://www.w3.org/2000/svg">
<g clip-path="url(#clip0_503_4940)">
<path d="M4.63258 0.000190072L3.51373 0.198291L4.10225 3.54872C3.76956 3.60072 3.43713 3.65435 3.10497 3.70963L2.6945 1.37258L1.57566 1.57049L1.9853 3.90152C1.6232 3.96555 1.26139 4.03127 0.899902 4.09867L1.10769 5.21975C1.46924 5.15221 1.82706 5.08734 2.18248 5.02437L2.62785 7.55971L3.74676 7.3618L3.3024 4.83216C3.63719 4.77641 3.96957 4.72288 4.29956 4.67125L4.91667 8.18411L6.03559 7.98607L5.42352 4.50235C5.95265 4.4262 6.48245 4.35483 7.01286 4.28822C7.99373 7.22711 9.2029 10.6231 11.2378 12.8057C11.7883 14.7317 11.8602 15.8092 13.2842 18.47C11.8602 20.8773 10.8503 24.9319 10.2955 28.6696L7.26578 29.0497V30H11.8602C12.8701 26.9591 15.8998 20.8773 15.8998 20.8773C15.8998 20.8773 18.9296 26.9591 19.9395 30H24.5339V29.0497L21.5042 28.6696C20.9494 24.9319 19.9395 20.8773 18.2984 18.47C19.9395 15.8092 19.8243 14.6952 20.5599 12.8078C22.5955 10.6252 23.8055 7.22806 24.7868 4.28835C25.3116 4.35423 25.8407 4.42519 26.3762 4.50248L25.7642 7.98619L26.8831 8.18411L27.5002 4.67125C27.8304 4.72288 28.1626 4.77641 28.4975 4.83216L28.053 7.3618L29.172 7.55977L29.6173 5.02443C29.9727 5.08734 30.3306 5.15221 30.6921 5.21975L30.8999 4.09867C30.5351 4.03057 30.1736 3.965 29.8146 3.90146L30.2242 1.57036L29.1053 1.37239L28.6948 3.70944C28.3626 3.6541 28.0302 3.60046 27.6975 3.54853L28.286 0.198101L27.1672 0L26.5735 3.37982C22.8418 2.84171 19.3703 2.5712 15.8998 2.5712C12.4296 2.5712 8.95781 2.84171 5.22627 3.38001L4.63258 0.000190072ZM15.8998 3.70773C18.1425 3.70773 20.3857 3.82366 22.7055 4.05382C21.8166 6.26214 20.2783 8.71043 18.7161 10.5136C18.0644 11.455 17.0581 12.0714 15.8998 12.0714C14.7416 12.0714 13.7352 11.455 13.0835 10.5136C11.5214 8.71043 9.98306 6.26207 9.09421 4.05382C11.4138 3.82366 13.6571 3.70773 15.8998 3.70773ZM15.8998 4.97603C14.5848 4.97603 13.4382 6.25827 13.4382 7.95357C13.4382 9.64886 14.5848 10.9311 15.8998 10.9311C17.2149 10.9311 18.3615 9.64886 18.3615 7.95357C18.3615 6.25827 17.2149 4.97603 15.8998 4.97603Z" fill="white"/>
</g>
<defs>
<clipPath id="clip0_503_4940">
<rect width="30" height="30" fill="white" transform="translate(0.899902)"/>
</clipPath>
</defs>
</svg>
