<svg width="31" height="31" viewBox="0 0 31 31" fill="none" xmlns="http://www.w3.org/2000/svg">
<g clip-path="url(#clip0_226_504)">
<path d="M4.41871 0.50019L3.29986 0.698291L3.88838 4.04872C3.55569 4.10072 3.22326 4.15435 2.8911 4.20963L2.48064 1.87258L1.36179 2.07049L1.77143 4.40152C1.40933 4.46555 1.04753 4.53127 0.686035 4.59867L0.893823 5.71975C1.25537 5.65221 1.61319 5.58734 1.96862 5.52437L2.41398 8.05971L3.5329 7.8618L3.08854 5.33216C3.42332 5.27641 3.75571 5.22288 4.08569 5.17125L4.70281 8.6841L5.82172 8.48607L5.20965 5.00235C5.73879 4.9262 6.26859 4.85483 6.79899 4.78822C7.77986 7.72711 8.98904 11.1231 11.0239 13.3057C11.5744 15.2317 11.6463 16.3092 13.0703 18.97C11.6463 21.3773 10.6364 25.4319 10.0816 29.1696L7.05191 29.5497V30.5H11.6463C12.6563 27.4591 15.686 21.3773 15.686 21.3773C15.686 21.3773 18.7157 27.4591 19.7256 30.5H24.32V29.5497L21.2903 29.1696C20.7355 25.4319 19.7256 21.3773 18.0845 18.97C19.7256 16.3092 19.6104 15.1952 20.3461 13.3078C22.3816 11.1252 23.5916 7.72806 24.5729 4.78835C25.0977 4.85423 25.6268 4.92519 26.1623 5.00248L25.5503 8.48619L26.6693 8.6841L27.2864 5.17125C27.6165 5.22288 27.9487 5.27641 28.2837 5.33216L27.8392 7.8618L28.9581 8.05977L29.4035 5.52443C29.7588 5.58734 30.1167 5.65221 30.4782 5.71975L30.686 4.59867C30.3212 4.53057 29.9597 4.465 29.6007 4.40146L30.0103 2.07036L28.8914 1.87239L28.4809 4.20944C28.1488 4.1541 27.8163 4.10046 27.4836 4.04853L28.0721 0.698101L26.9533 0.5L26.3596 3.87982C22.6279 3.34171 19.1564 3.0712 15.686 3.0712C12.2157 3.0712 8.74394 3.34171 5.01241 3.88001L4.41871 0.50019ZM15.686 4.20773C17.9286 4.20773 20.1718 4.32366 22.4916 4.55382C21.6028 6.76214 20.0644 9.21043 18.5023 11.0136C17.8505 11.955 16.8442 12.5714 15.686 12.5714C14.5277 12.5714 13.5214 11.955 12.8696 11.0136C11.3075 9.21043 9.76919 6.76207 8.88034 4.55382C11.2 4.32366 13.4432 4.20773 15.686 4.20773ZM15.686 5.47603C14.3709 5.47603 13.2243 6.75827 13.2243 8.45357C13.2243 10.1489 14.3709 11.4311 15.686 11.4311C17.0011 11.4311 18.1476 10.1489 18.1476 8.45357C18.1476 6.75827 17.0011 5.47603 15.686 5.47603Z" fill="white"/>
</g>
<defs>
<clipPath id="clip0_226_504">
<rect width="30" height="30" fill="white" transform="translate(0.686035 0.5)"/>
</clipPath>
</defs>
</svg>
