<svg width="31" height="31" viewBox="0 0 31 31" fill="none" xmlns="http://www.w3.org/2000/svg">
<g clip-path="url(#clip0_21_306)">
<path d="M3.90101 0.50019L2.78216 0.698291L3.37068 4.04872C3.03799 4.10072 2.70556 4.15435 2.3734 4.20963L1.96294 1.87258L0.844088 2.07049L1.25373 4.40152C0.891629 4.46555 0.529827 4.53127 0.168335 4.59867L0.376123 5.71975C0.737669 5.65221 1.09549 5.58734 1.45091 5.52437L1.89628 8.05971L3.0152 7.8618L2.57084 5.33216C2.90562 5.27641 3.23801 5.22288 3.56799 5.17125L4.18511 8.6841L5.30402 8.48607L4.69195 5.00235C5.22109 4.9262 5.75089 4.85483 6.28129 4.78822C7.26216 7.72711 8.47134 11.1231 10.5062 13.3057C11.0567 15.2317 11.1286 16.3092 12.5526 18.97C11.1286 21.3773 10.1187 25.4319 9.56393 29.1696L6.53421 29.5497V30.5H11.1286C12.1386 27.4591 15.1683 21.3773 15.1683 21.3773C15.1683 21.3773 18.198 27.4591 19.2079 30.5H23.8023V29.5497L20.7726 29.1696C20.2178 25.4319 19.2079 21.3773 17.5668 18.97C19.2079 16.3092 19.0927 15.1952 19.8284 13.3078C21.8639 11.1252 23.0739 7.72806 24.0552 4.78835C24.58 4.85423 25.1091 4.92519 25.6446 5.00248L25.0326 8.48619L26.1516 8.6841L26.7687 5.17125C27.0988 5.22288 27.431 5.27641 27.766 5.33216L27.3215 7.8618L28.4404 8.05977L28.8858 5.52443C29.2411 5.58734 29.599 5.65221 29.9605 5.71975L30.1683 4.59867C29.8035 4.53057 29.442 4.465 29.083 4.40146L29.4926 2.07036L28.3737 1.87239L27.9632 4.20944C27.6311 4.1541 27.2986 4.10046 26.9659 4.04853L27.5544 0.698101L26.4356 0.5L25.8419 3.87982C22.1102 3.34171 18.6387 3.0712 15.1683 3.0712C11.698 3.0712 8.22624 3.34171 4.49471 3.88001L3.90101 0.50019ZM15.1683 4.20773C17.4109 4.20773 19.6541 4.32366 21.9739 4.55382C21.0851 6.76214 19.5467 9.21043 17.9846 11.0136C17.3328 11.955 16.3265 12.5714 15.1683 12.5714C14.01 12.5714 13.0037 11.955 12.3519 11.0136C10.7898 9.21043 9.25149 6.76207 8.36264 4.55382C10.6823 4.32366 12.9255 4.20773 15.1683 4.20773ZM15.1683 5.47603C13.8532 5.47603 12.7066 6.75827 12.7066 8.45357C12.7066 10.1489 13.8532 11.4311 15.1683 11.4311C16.4834 11.4311 17.6299 10.1489 17.6299 8.45357C17.6299 6.75827 16.4834 5.47603 15.1683 5.47603Z" fill="black"/>
</g>
<defs>
<clipPath id="clip0_21_306">
<rect width="30" height="30" fill="white" transform="translate(0.168335 0.5)"/>
</clipPath>
</defs>
</svg>
