<svg width="31" height="31" viewBox="0 0 31 31" fill="none" xmlns="http://www.w3.org/2000/svg">
<g clip-path="url(#clip0_190_2573)">
<path d="M4.63264 0.50019L3.51379 0.698291L4.10231 4.04872C3.76962 4.10072 3.43719 4.15435 3.10503 4.20963L2.69457 1.87258L1.57572 2.07049L1.98536 4.40152C1.62326 4.46555 1.26146 4.53127 0.899963 4.59867L1.10775 5.71975C1.4693 5.65221 1.82712 5.58734 2.18254 5.52437L2.62791 8.05971L3.74682 7.8618L3.30247 5.33216C3.63725 5.27641 3.96963 5.22288 4.29962 5.17125L4.91674 8.68411L6.03565 8.48607L5.42358 5.00235C5.95271 4.9262 6.48251 4.85483 7.01292 4.78822C7.99379 7.72711 9.20297 11.1231 11.2379 13.3057C11.7883 15.2317 11.8603 16.3092 13.2842 18.97C11.8603 21.3773 10.8504 25.4319 10.2956 29.1696L7.26584 29.5497V30.5H11.8603C12.8702 27.4591 15.8999 21.3773 15.8999 21.3773C15.8999 21.3773 18.9296 27.4591 19.9395 30.5H24.534V29.5497L21.5042 29.1696C20.9494 25.4319 19.9395 21.3773 18.2984 18.97C19.9395 16.3092 19.8243 15.1952 20.56 13.3078C22.5956 11.1252 23.8056 7.72806 24.7869 4.78835C25.3116 4.85423 25.8408 4.92519 26.3762 5.00248L25.7642 8.48619L26.8832 8.68411L27.5003 5.17125C27.8304 5.22288 28.1627 5.27641 28.4976 5.33216L28.0531 7.8618L29.172 8.05977L29.6174 5.52443C29.9727 5.58734 30.3306 5.65221 30.6922 5.71975L30.9 4.59867C30.5351 4.53057 30.1737 4.465 29.8146 4.40146L30.2243 2.07036L29.1054 1.87239L28.6948 4.20944C28.3627 4.1541 28.0303 4.10046 27.6976 4.04853L28.2861 0.698101L27.1672 0.5L26.5735 3.87982C22.8419 3.34171 19.3703 3.0712 15.8999 3.0712C12.4296 3.0712 8.95787 3.34171 5.22634 3.88001L4.63264 0.50019ZM15.8999 4.20773C18.1425 4.20773 20.3858 4.32366 22.7055 4.55382C21.8167 6.76214 20.2783 9.21043 18.7162 11.0136C18.0644 11.955 17.0581 12.5714 15.8999 12.5714C14.7417 12.5714 13.7353 11.955 13.0835 11.0136C11.5215 9.21043 9.98312 6.76207 9.09427 4.55382C11.4139 4.32366 13.6572 4.20773 15.8999 4.20773ZM15.8999 5.47603C14.5848 5.47603 13.4383 6.75827 13.4383 8.45357C13.4383 10.1489 14.5848 11.4311 15.8999 11.4311C17.215 11.4311 18.3615 10.1489 18.3615 8.45357C18.3615 6.75827 17.215 5.47603 15.8999 5.47603Z" fill="white"/>
</g>
<defs>
<clipPath id="clip0_190_2573">
<rect width="30" height="30" fill="white" transform="translate(0.899963 0.5)"/>
</clipPath>
</defs>
</svg>
