<svg width="31" height="31" viewBox="0 0 31 31" fill="none" xmlns="http://www.w3.org/2000/svg">
<g clip-path="url(#clip0_480_1435)">
<path d="M4.6692 0.50019L3.55035 0.698291L4.13887 4.04872C3.80618 4.10072 3.47375 4.15435 3.14159 4.20963L2.73113 1.87258L1.61228 2.07049L2.02192 4.40152C1.65982 4.46555 1.29802 4.53127 0.936523 4.59867L1.14431 5.71975C1.50586 5.65221 1.86368 5.58734 2.2191 5.52437L2.66447 8.05971L3.78338 7.8618L3.33903 5.33216C3.67381 5.27641 4.00619 5.22288 4.33618 5.17125L4.9533 8.6841L6.07221 8.48607L5.46014 5.00235C5.98927 4.9262 6.51907 4.85483 7.04948 4.78822C8.03035 7.72711 9.23952 11.1231 11.2744 13.3057C11.8249 15.2317 11.8968 16.3092 13.3208 18.97C11.8968 21.3773 10.8869 25.4319 10.3321 29.1696L7.3024 29.5497V30.5H11.8968C12.9067 27.4591 15.9365 21.3773 15.9365 21.3773C15.9365 21.3773 18.9662 27.4591 19.9761 30.5H24.5705V29.5497L21.5408 29.1696C20.986 25.4319 19.9761 21.3773 18.335 18.97C19.9761 16.3092 19.8609 15.1952 20.5965 13.3078C22.6321 11.1252 23.8421 7.72806 24.8234 4.78835C25.3482 4.85423 25.8773 4.92519 26.4128 5.00248L25.8008 8.48619L26.9197 8.6841L27.5369 5.17125C27.867 5.22288 28.1992 5.27641 28.5341 5.33216L28.0897 7.8618L29.2086 8.05977L29.6539 5.52443C30.0093 5.58734 30.3672 5.65221 30.7287 5.71975L30.9365 4.59867C30.5717 4.53057 30.2102 4.465 29.8512 4.40146L30.2608 2.07036L29.1419 1.87239L28.7314 4.20944C28.3992 4.1541 28.0668 4.10046 27.7341 4.04853L28.3226 0.698101L27.2038 0.5L26.6101 3.87982C22.8784 3.34171 19.4069 3.0712 15.9365 3.0712C12.4662 3.0712 8.99443 3.34171 5.2629 3.88001L4.6692 0.50019ZM15.9365 4.20773C18.1791 4.20773 20.4223 4.32366 22.7421 4.55382C21.8532 6.76214 20.3149 9.21043 18.7528 11.0136C18.101 11.955 17.0947 12.5714 15.9365 12.5714C14.7782 12.5714 13.7719 11.955 13.1201 11.0136C11.558 9.21043 10.0197 6.76207 9.13083 4.55382C11.4505 4.32366 13.6937 4.20773 15.9365 4.20773ZM15.9365 5.47603C14.6214 5.47603 13.4748 6.75827 13.4748 8.45357C13.4748 10.1489 14.6214 11.4311 15.9365 11.4311C17.2515 11.4311 18.3981 10.1489 18.3981 8.45357C18.3981 6.75827 17.2515 5.47603 15.9365 5.47603Z" fill="white"/>
</g>
<defs>
<clipPath id="clip0_480_1435">
<rect width="30" height="30" fill="white" transform="translate(0.936523 0.5)"/>
</clipPath>
</defs>
</svg>
