<svg width="31" height="30" viewBox="0 0 31 30" fill="none" xmlns="http://www.w3.org/2000/svg">
<g clip-path="url(#clip0_21_306)">
<path d="M3.90101 0.000190072L2.78216 0.198291L3.37068 3.54872C3.03799 3.60072 2.70556 3.65435 2.3734 3.70963L1.96294 1.37258L0.844088 1.57049L1.25373 3.90152C0.891629 3.96555 0.529827 4.03127 0.168335 4.09867L0.376123 5.21975C0.737669 5.15221 1.09549 5.08734 1.45091 5.02437L1.89628 7.55971L3.0152 7.3618L2.57084 4.83216C2.90562 4.77641 3.23801 4.72288 3.56799 4.67125L4.18511 8.1841L5.30402 7.98607L4.69195 4.50235C5.22109 4.4262 5.75089 4.35483 6.28129 4.28822C7.26216 7.22711 8.47134 10.6231 10.5062 12.8057C11.0567 14.7317 11.1286 15.8092 12.5526 18.47C11.1286 20.8773 10.1187 24.9319 9.56393 28.6696L6.53421 29.0497V30H11.1286C12.1386 26.9591 15.1683 20.8773 15.1683 20.8773C15.1683 20.8773 18.198 26.9591 19.2079 30H23.8023V29.0497L20.7726 28.6696C20.2178 24.9319 19.2079 20.8773 17.5668 18.47C19.2079 15.8092 19.0927 14.6952 19.8284 12.8078C21.8639 10.6252 23.0739 7.22806 24.0552 4.28835C24.58 4.35423 25.1091 4.42519 25.6446 4.50248L25.0326 7.98619L26.1516 8.1841L26.7687 4.67125C27.0988 4.72288 27.431 4.77641 27.766 4.83216L27.3215 7.3618L28.4404 7.55977L28.8858 5.02443C29.2411 5.08734 29.599 5.15221 29.9605 5.21975L30.1683 4.09867C29.8035 4.03057 29.442 3.965 29.083 3.90146L29.4926 1.57036L28.3737 1.37239L27.9632 3.70944C27.6311 3.6541 27.2986 3.60046 26.9659 3.54853L27.5544 0.198101L26.4356 0L25.8419 3.37982C22.1102 2.84171 18.6387 2.5712 15.1683 2.5712C11.698 2.5712 8.22624 2.84171 4.49471 3.38001L3.90101 0.000190072ZM15.1683 3.70773C17.4109 3.70773 19.6541 3.82366 21.9739 4.05382C21.0851 6.26214 19.5467 8.71043 17.9846 10.5136C17.3328 11.455 16.3265 12.0714 15.1683 12.0714C14.01 12.0714 13.0037 11.455 12.3519 10.5136C10.7898 8.71043 9.25149 6.26207 8.36264 4.05382C10.6823 3.82366 12.9255 3.70773 15.1683 3.70773ZM15.1683 4.97603C13.8532 4.97603 12.7066 6.25827 12.7066 7.95357C12.7066 9.64886 13.8532 10.9311 15.1683 10.9311C16.4834 10.9311 17.6299 9.64886 17.6299 7.95357C17.6299 6.25827 16.4834 4.97603 15.1683 4.97603Z" fill="black"/>
</g>
<defs>
<clipPath id="clip0_21_306">
<rect width="30" height="30" fill="white" transform="translate(0.168335)"/>
</clipPath>
</defs>
</svg>
