<svg width="31" height="31" viewBox="0 0 31 31" fill="none" xmlns="http://www.w3.org/2000/svg">
<g clip-path="url(#clip0_191_194)">
<path d="M4.66871 0.50019L3.54986 0.698291L4.13838 4.04872C3.80569 4.10072 3.47326 4.15435 3.1411 4.20963L2.73064 1.87258L1.61179 2.07049L2.02143 4.40152C1.65933 4.46555 1.29753 4.53127 0.936035 4.59867L1.14382 5.71975C1.50537 5.65221 1.86319 5.58734 2.21862 5.52437L2.66398 8.05971L3.7829 7.8618L3.33854 5.33216C3.67332 5.27641 4.00571 5.22288 4.33569 5.17125L4.95281 8.6841L6.07172 8.48607L5.45965 5.00235C5.98879 4.9262 6.51859 4.85483 7.04899 4.78822C8.02986 7.72711 9.23904 11.1231 11.2739 13.3057C11.8244 15.2317 11.8963 16.3092 13.3203 18.97C11.8963 21.3773 10.8864 25.4319 10.3316 29.1696L7.30191 29.5497V30.5H11.8963C12.9063 27.4591 15.936 21.3773 15.936 21.3773C15.936 21.3773 18.9657 27.4591 19.9756 30.5H24.57V29.5497L21.5403 29.1696C20.9855 25.4319 19.9756 21.3773 18.3345 18.97C19.9756 16.3092 19.8604 15.1952 20.5961 13.3078C22.6316 11.1252 23.8416 7.72806 24.8229 4.78835C25.3477 4.85423 25.8768 4.92519 26.4123 5.00248L25.8003 8.48619L26.9193 8.6841L27.5364 5.17125C27.8665 5.22288 28.1987 5.27641 28.5337 5.33216L28.0892 7.8618L29.2081 8.05977L29.6535 5.52443C30.0088 5.58734 30.3667 5.65221 30.7282 5.71975L30.936 4.59867C30.5712 4.53057 30.2097 4.465 29.8507 4.40146L30.2603 2.07036L29.1414 1.87239L28.7309 4.20944C28.3988 4.1541 28.0663 4.10046 27.7336 4.04853L28.3221 0.698101L27.2033 0.5L26.6096 3.87982C22.8779 3.34171 19.4064 3.0712 15.936 3.0712C12.4657 3.0712 8.99394 3.34171 5.26241 3.88001L4.66871 0.50019ZM15.936 4.20773C18.1786 4.20773 20.4218 4.32366 22.7416 4.55382C21.8528 6.76214 20.3144 9.21043 18.7523 11.0136C18.1005 11.955 17.0942 12.5714 15.936 12.5714C14.7777 12.5714 13.7714 11.955 13.1196 11.0136C11.5575 9.21043 10.0192 6.76207 9.13034 4.55382C11.45 4.32366 13.6932 4.20773 15.936 4.20773ZM15.936 5.47603C14.6209 5.47603 13.4743 6.75827 13.4743 8.45357C13.4743 10.1489 14.6209 11.4311 15.936 11.4311C17.2511 11.4311 18.3976 10.1489 18.3976 8.45357C18.3976 6.75827 17.2511 5.47603 15.936 5.47603Z" fill="white"/>
</g>
<defs>
<clipPath id="clip0_191_194">
<rect width="30" height="30" fill="white" transform="translate(0.936035 0.5)"/>
</clipPath>
</defs>
</svg>
