<svg width="31" height="31" viewBox="0 0 31 31" fill="none" xmlns="http://www.w3.org/2000/svg">
<g clip-path="url(#clip0_179_1953)">
<path d="M4.41883 0.50019L3.29998 0.698291L3.8885 4.04872C3.55582 4.10072 3.22339 4.15435 2.89122 4.20963L2.48076 1.87258L1.36191 2.07049L1.77155 4.40152C1.40945 4.46555 1.04765 4.53127 0.686157 4.59867L0.893945 5.71975C1.25549 5.65221 1.61331 5.58734 1.96874 5.52437L2.41411 8.05971L3.53302 7.8618L3.08866 5.33216C3.42344 5.27641 3.75583 5.22288 4.08581 5.17125L4.70293 8.6841L5.82184 8.48607L5.20978 5.00235C5.73891 4.9262 6.26871 4.85483 6.79912 4.78822C7.77999 7.72711 8.98916 11.1231 11.0241 13.3057C11.5745 15.2317 11.6465 16.3092 13.0704 18.97C11.6465 21.3773 10.6366 25.4319 10.0817 29.1696L7.05203 29.5497V30.5H11.6465C12.6564 27.4591 15.6861 21.3773 15.6861 21.3773C15.6861 21.3773 18.7158 27.4591 19.7257 30.5H24.3202V29.5497L21.2904 29.1696C20.7356 25.4319 19.7257 21.3773 18.0846 18.97C19.7257 16.3092 19.6105 15.1952 20.3462 13.3078C22.3818 11.1252 23.5918 7.72806 24.5731 4.78835C25.0978 4.85423 25.627 4.92519 26.1624 5.00248L25.5504 8.48619L26.6694 8.6841L27.2865 5.17125C27.6166 5.22288 27.9489 5.27641 28.2838 5.33216L27.8393 7.8618L28.9582 8.05977L29.4036 5.52443C29.7589 5.58734 30.1168 5.65221 30.4784 5.71975L30.6862 4.59867C30.3213 4.53057 29.9598 4.465 29.6008 4.40146L30.0105 2.07036L28.8916 1.87239L28.481 4.20944C28.1489 4.1541 27.8164 4.10046 27.4837 4.04853L28.0723 0.698101L26.9534 0.5L26.3597 3.87982C22.6281 3.34171 19.1565 3.0712 15.6861 3.0712C12.2158 3.0712 8.74407 3.34171 5.01253 3.88001L4.41883 0.50019ZM15.6861 4.20773C17.9287 4.20773 20.172 4.32366 22.4917 4.55382C21.6029 6.76214 20.0645 9.21043 18.5024 11.0136C17.8506 11.955 16.8443 12.5714 15.6861 12.5714C14.5279 12.5714 13.5215 11.955 12.8697 11.0136C11.3076 9.21043 9.76931 6.76207 8.88047 4.55382C11.2001 4.32366 13.4433 4.20773 15.6861 4.20773ZM15.6861 5.47603C14.371 5.47603 13.2244 6.75827 13.2244 8.45357C13.2244 10.1489 14.371 11.4311 15.6861 11.4311C17.0012 11.4311 18.1477 10.1489 18.1477 8.45357C18.1477 6.75827 17.0012 5.47603 15.6861 5.47603Z" fill="white"/>
</g>
<defs>
<clipPath id="clip0_179_1953">
<rect width="30" height="30" fill="white" transform="translate(0.686157 0.5)"/>
</clipPath>
</defs>
</svg>
